<?xml version="1.0" standalone="no"?>
<!DOCTYPE svg PUBLIC "-//W3C//DTD SVG 20010904//EN"
 "http://www.w3.org/TR/2001/REC-SVG-20010904/DTD/svg10.dtd">
<svg version="1.0" xmlns="http://www.w3.org/2000/svg"
 width="700.000000pt" height="700.000000pt" viewBox="0 0 700.000000 700.000000"
 preserveAspectRatio="xMidYMid meet">
<metadata>
Created by potrace 1.14, written by Peter Selinger 2001-2017
</metadata>
<g transform="translate(0.000000,700.000000) scale(0.100000,-0.100000)"
fill="#000000" stroke="none">
<path d="M4465 6559 c-259 -25 -464 -216 -521 -484 -8 -36 -5 -159 5 -211 39
-202 202 -382 401 -443 206 -63 423 -7 580 149 137 136 194 307 167 503 -18
129 -99 268 -205 352 -31 25 -63 50 -69 55 -28 23 -162 69 -218 75 -33 4 -62
8 -65 9 -3 1 -36 -1 -75 -5z"/>
<path d="M3375 5527 c-102 -33 -141 -51 -193 -86 -31 -21 -267 -250 -523 -508
-503 -506 -517 -523 -545 -656 -26 -126 -9 -304 38 -396 26 -50 107 -136 218
-232 41 -35 77 -66 80 -69 3 -3 75 -66 160 -140 85 -74 160 -139 166 -145 6
-5 39 -35 74 -65 35 -30 68 -59 74 -65 6 -5 45 -39 86 -75 41 -36 91 -79 110
-97 19 -17 47 -41 63 -53 l27 -21 0 -608 c0 -702 -2 -680 83 -766 139 -138
362 -108 464 62 l28 48 0 750 0 750 -26 71 c-34 93 -79 159 -186 270 -49 51
-161 169 -251 262 -90 94 -164 174 -164 178 -1 8 683 694 691 694 3 0 81 -74
174 -165 177 -174 278 -258 418 -348 90 -58 300 -164 379 -192 143 -50 283
-87 403 -106 141 -22 246 25 311 141 28 50 31 63 31 140 0 62 -5 95 -19 124
-38 79 -136 153 -226 170 -19 3 -46 8 -60 11 -14 3 -38 8 -54 11 -58 10 -204
63 -275 98 -195 99 -267 159 -676 566 -199 197 -363 352 -396 373 -97 62 -166
79 -319 82 -74 1 -148 -2 -165 -8z"/>
<path d="M1320 3497 c-3 -3 -32 -7 -65 -10 -33 -4 -71 -9 -85 -12 -14 -2 -38
-7 -55 -10 -83 -17 -241 -74 -335 -121 -251 -128 -481 -355 -614 -605 -121
-227 -169 -449 -162 -744 10 -392 134 -697 396 -969 244 -254 550 -403 890
-433 476 -43 877 90 1187 394 111 109 148 153 218 261 148 230 219 488 219
797 -1 437 -146 777 -456 1070 -264 250 -569 371 -963 381 -94 3 -173 3 -175
1z m241 -441 c324 -25 641 -244 807 -556 140 -265 145 -626 12 -892 -151 -302
-427 -514 -744 -572 -99 -18 -295 -14 -392 7 -417 93 -751 460 -799 877 -30
256 37 512 186 709 198 263 444 405 739 427 47 4 87 8 88 10 2 1 9 1 15 -1 7
-2 46 -6 88 -9z"/>
<path d="M5330 3488 c-365 -58 -617 -188 -859 -444 -188 -198 -317 -449 -357
-689 -3 -16 -7 -36 -9 -43 -17 -51 -25 -326 -12 -454 21 -214 105 -452 220
-623 218 -325 536 -542 907 -620 162 -34 436 -39 593 -10 15 3 37 7 50 9 403
71 801 380 990 769 43 89 94 225 103 277 2 14 7 39 11 55 11 48 12 56 20 120
12 91 9 381 -5 455 -7 36 -14 77 -17 91 -25 136 -105 329 -190 461 -129 200
-338 390 -545 496 -142 73 -219 99 -425 143 -71 15 -395 20 -475 7z m531 -478
c184 -61 330 -164 471 -331 286 -340 307 -845 51 -1207 -166 -236 -401 -389
-669 -436 -91 -17 -289 -14 -374 4 -343 73 -636 330 -764 669 -48 127 -67 370
-40 512 60 317 277 599 572 744 122 59 215 83 362 92 52 3 96 6 97 7 11 9 221
-29 294 -54z"/>
</g>
</svg>
