<svg width="999" height="999" viewBox="0 0 999 999" fill="none" xmlns="http://www.w3.org/2000/svg">
<g opacity="0.25">
<path d="M999 299.7L949.05 249.75L874.125 324.675L799.2 249.75L749.25 299.7L824.175 374.625L749.25 449.55L799.2 499.5L874.125 424.575L949.05 499.5L999 449.55L924.075 374.625L999 299.7Z" fill="#FFC34D"/>
<path d="M374.625 899.1C471.178 899.1 549.45 820.828 549.45 724.275C549.45 627.722 471.178 549.45 374.625 549.45C278.072 549.45 199.8 627.722 199.8 724.275C199.8 820.828 278.072 899.1 374.625 899.1Z" fill="#FFC34D"/>
<path d="M349.65 249.75C404.823 249.75 449.55 205.023 449.55 149.85C449.55 94.6768 404.823 49.95 349.65 49.95C294.477 49.95 249.75 94.6768 249.75 149.85C249.75 205.023 294.477 249.75 349.65 249.75Z" fill="#FFC34D"/>
<path d="M649.35 399.6C676.937 399.6 699.3 377.237 699.3 349.65C699.3 322.063 676.937 299.7 649.35 299.7C621.763 299.7 599.4 322.063 599.4 349.65C599.4 377.237 621.763 399.6 649.35 399.6Z" fill="#FFC34D"/>
<path d="M499.5 349.65C527.087 349.65 549.45 327.287 549.45 299.7C549.45 272.113 527.087 249.75 499.5 249.75C471.913 249.75 449.55 272.113 449.55 299.7C449.55 327.287 471.913 349.65 499.5 349.65Z" fill="#FFC34D"/>
<path d="M149.85 199.8C177.437 199.8 199.8 177.437 199.8 149.85C199.8 122.263 177.437 99.9 149.85 99.9C122.263 99.9 99.9 122.263 99.9 149.85C99.9 177.437 122.263 199.8 149.85 199.8Z" fill="#FFC34D"/>
<path d="M49.95 349.65C77.5366 349.65 99.9 327.287 99.9 299.7C99.9 272.113 77.5366 249.75 49.95 249.75C22.3634 249.75 0 272.113 0 299.7C0 327.287 22.3634 349.65 49.95 349.65Z" fill="#FFC34D"/>
<path d="M49.95 499.5C77.5366 499.5 99.9 477.137 99.9 449.55C99.9 421.963 77.5366 399.6 49.95 399.6C22.3634 399.6 0 421.963 0 449.55C0 477.137 22.3634 499.5 49.95 499.5Z" fill="#FFC34D"/>
<path d="M149.85 649.35C177.437 649.35 199.8 626.987 199.8 599.4C199.8 571.813 177.437 549.45 149.85 549.45C122.263 549.45 99.9 571.813 99.9 599.4C99.9 626.987 122.263 649.35 149.85 649.35Z" fill="#FFC34D"/>
</g>
</svg>
