<svg width="112" height="40" viewBox="0 0 112 40" fill="none" xmlns="http://www.w3.org/2000/svg">
<g clip-path="url(#clip0_19_6)">
<path d="M25.8333 9.16667C24.9167 9.16667 24.1317 8.84 23.4783 8.18667C22.825 7.53333 22.4989 6.74889 22.5 5.83333C22.5 4.91667 22.8267 4.13167 23.48 3.47833C24.1333 2.825 24.9178 2.49889 25.8333 2.5C26.75 2.5 27.535 2.82667 28.1883 3.48C28.8417 4.13333 29.1678 4.91778 29.1667 5.83333C29.1667 6.75 28.84 7.535 28.1867 8.18833C27.5333 8.84167 26.7489 9.16778 25.8333 9.16667ZM20 31.6667C19.5278 31.6667 19.1317 31.5067 18.8117 31.1867C18.4917 30.8667 18.3322 30.4711 18.3333 30V23.3333L13 18.6667C12.6111 18.3333 12.3472 17.9861 12.2083 17.625C12.0694 17.2639 12 16.8333 12 16.3333C12 15.8333 12.0767 15.4094 12.23 15.0617C12.3833 14.7139 12.64 14.36 13 14L17.6667 9.33333C18.0278 8.97222 18.41 8.715 18.8133 8.56167C19.2167 8.40833 19.6678 8.33222 20.1667 8.33333C20.6667 8.33333 21.1183 8.41 21.5217 8.56333C21.925 8.71667 22.3067 8.97333 22.6667 9.33333L25.8333 12.5C26.4444 13.1111 27.1183 13.625 27.855 14.0417C28.5917 14.4583 29.4178 14.7361 30.3333 14.875C30.7778 14.9583 31.1389 15.1528 31.4167 15.4583C31.6944 15.7639 31.8333 16.125 31.8333 16.5417C31.8333 17.0694 31.6528 17.4933 31.2917 17.8133C30.9306 18.1333 30.5139 18.265 30.0417 18.2083C28.7083 18.0139 27.4794 17.625 26.355 17.0417C25.2306 16.4583 24.2233 15.7222 23.3333 14.8333L22 13.5L18 17.5L20.75 20.375C21.0556 20.6806 21.285 21.035 21.4383 21.4383C21.5917 21.8417 21.6678 22.2511 21.6667 22.6667V30C21.6667 30.4722 21.5067 30.8683 21.1867 31.1883C20.8667 31.5083 20.4711 31.6678 20 31.6667ZM8.33333 36.6667C5.97222 36.6667 3.99278 35.8678 2.395 34.27C0.797223 32.6722 -0.00110995 30.6933 1.15821e-06 28.3333C1.15821e-06 25.9722 0.79889 23.9928 2.39667 22.395C3.99445 20.7972 5.97333 19.9989 8.33333 20C10.6944 20 12.6739 20.7989 14.2717 22.3967C15.8694 23.9944 16.6678 25.9733 16.6667 28.3333C16.6667 30.6944 15.8678 32.6739 14.27 34.2717C12.6722 35.8694 10.6933 36.6678 8.33333 36.6667ZM8.33333 34.1667C9.91667 34.1667 11.285 33.59 12.4383 32.4367C13.5917 31.2833 14.1678 29.9156 14.1667 28.3333C14.1667 26.75 13.59 25.3817 12.4367 24.2283C11.2833 23.075 9.91556 22.4989 8.33333 22.5C6.75 22.5 5.38167 23.0767 4.22833 24.23C3.075 25.3833 2.49889 26.7511 2.5 28.3333C2.5 29.9167 3.07667 31.285 4.23 32.4383C5.38333 33.5917 6.75111 34.1678 8.33333 34.1667ZM31.6667 36.6667C29.3056 36.6667 27.3261 35.8678 25.7283 34.27C24.1306 32.6722 23.3322 30.6933 23.3333 28.3333C23.3333 25.9722 24.1322 23.9928 25.73 22.395C27.3278 20.7972 29.3067 19.9989 31.6667 20C34.0278 20 36.0072 20.7989 37.605 22.3967C39.2028 23.9944 40.0011 25.9733 40 28.3333C40 30.6944 39.2011 32.6739 37.6033 34.2717C36.0056 35.8694 34.0267 36.6678 31.6667 36.6667ZM31.6667 34.1667C33.25 34.1667 34.6183 33.59 35.7717 32.4367C36.925 31.2833 37.5011 29.9156 37.5 28.3333C37.5 26.75 36.9233 25.3817 35.77 24.2283C34.6167 23.075 33.2489 22.4989 31.6667 22.5C30.0833 22.5 28.715 23.0767 27.5617 24.23C26.4083 25.3833 25.8322 26.7511 25.8333 28.3333C25.8333 29.9167 26.41 31.285 27.5633 32.4383C28.7167 33.5917 30.0844 34.1678 31.6667 34.1667Z" fill="#FFC34D"/>
</g>
<path d="M71.8 33.14V33.5H65.52L57.36 24.14H52.28V33.5H47V5.46C51.44 5.46 55.88 5.5 60.32 5.5C66.92 5.54 70.4 9.94 70.4 14.78C70.4 18.62 68.64 22.5 63.32 23.58L71.8 33.14ZM60.32 10.42H52.28V19.38H60.32C63.68 19.38 65.12 17.14 65.12 14.9C65.12 12.66 63.64 10.42 60.32 10.42Z" fill="#332200"/>
<path d="M75.1922 33.5V10.3H66.3122V5.5C74.3922 5.5 81.2322 5.5 89.3522 5.5V10.3H80.4722V33.5H75.1922Z" fill="#684500"/>
<path d="M91.6016 21.38V28.58H99.6816C101.842 28.58 104.922 27.86 104.922 25.22C104.922 22.7 101.842 21.38 99.6816 21.38H91.6016ZM91.6016 10.3V16.74H99.6816C103.002 16.74 104.082 15.34 104.082 13.74C104.082 12.46 103.042 10.3 99.6816 10.3H91.6016ZM99.6816 5.5C105.202 5.5 109.322 7.98 109.322 13.62C109.322 15.78 108.282 17.86 105.682 19.02C108.962 20.02 110.162 23.5 110.162 25.26C110.162 31.5 105.482 33.5 99.6816 33.5C95.2416 33.5 90.8416 33.5 86.4016 33.5V5.5C90.8016 5.5 95.2416 5.5 99.6816 5.5Z" fill="#FFC34D"/>
<defs>
<clipPath id="clip0_19_6">
<rect width="40" height="40" fill="white"/>
</clipPath>
</defs>
</svg>
