<svg width="100" height="13" viewBox="0 0 100 13" fill="none" xmlns="http://www.w3.org/2000/svg">
<g clip-path="url(#clip0_38_1789)">
<path d="M71.3596 10.0737C70.9438 10.6002 70.3381 10.864 69.54 10.8635C68.7417 10.863 68.1465 10.5979 67.7548 10.0678C67.3617 9.53934 67.1654 8.83273 67.1659 7.94843C67.1657 7.12912 67.3577 6.44233 67.7457 5.88983C68.1294 5.33664 68.7368 5.05963 69.5592 5.05972C70.0999 5.05954 70.5751 5.21177 70.985 5.51685C71.6514 6.0197 71.9836 6.85675 71.9832 8.02705C71.9846 8.86481 71.7754 9.54688 71.3596 10.0737ZM72.3676 0.00107861V4.46197C72.0838 4.13208 71.6008 3.74829 71.1923 3.54396C70.6834 3.2895 69.934 3.1778 69.2822 3.1778C68.0672 3.1778 66.8248 3.54606 65.9778 4.48324C65.1301 5.41935 64.6039 6.5004 64.6039 8.13319C64.6032 9.55026 65.0337 10.7097 65.8945 11.6147C66.7553 12.5194 67.8145 12.9709 69.0756 12.9718C69.8414 12.9718 70.6813 12.8428 71.1954 12.5862C71.6259 12.3699 72.0159 12.0734 72.3676 11.6399V12.9811H75.1083L75.1093 0.00107861H72.3676Z" fill="#231F20"/>
<path d="M16.4907 9.079C16.4719 9.89221 16.015 10.4504 15.5104 10.757C15.0063 11.0648 14.4565 11.2184 13.8584 11.2184C13.4807 11.2188 13.1619 11.1259 12.8978 10.9415C12.6346 10.7558 12.5024 10.4568 12.5031 10.041C12.5039 9.57566 12.7174 9.23213 13.1494 9.00992C13.4037 8.87949 13.8234 8.76891 14.408 8.67847L15.0305 8.57531C15.3423 8.52505 15.5861 8.47008 15.7645 8.4101C15.9426 8.35102 16.3147 8.27241 16.4909 8.17562L16.4907 9.079ZM18.0717 3.78641C17.1789 3.38354 16.1565 3.18249 15.006 3.18187C13.2387 3.18231 11.9916 3.59046 11.2657 4.40824C10.8098 4.93217 10.5527 5.60035 10.4949 6.41157L13.1332 6.41185C13.1987 6.05432 13.3302 5.76931 13.5234 5.56001C13.7961 5.27616 14.2587 5.13403 14.9146 5.13503C15.4987 5.13412 15.9425 5.20501 16.2436 5.35077C16.5453 5.49612 16.6956 5.75858 16.6962 6.13938C16.6961 6.45193 16.4992 6.6815 16.1065 6.82826C15.8873 6.91442 15.5223 6.98596 15.0143 7.04212L14.0755 7.14391C13.0104 7.26434 12.2056 7.4631 11.6562 7.74029C10.6567 8.25331 10.1577 9.08016 10.1578 10.2209C10.1573 11.1023 10.4679 11.7828 11.0894 12.2626C11.7114 12.7423 12.4978 12.9822 13.4515 12.9811C14.198 12.9815 14.8677 12.8318 15.4588 12.531C15.954 12.2752 16.2923 12.0559 16.6724 11.6931L16.6722 12.9813H19.4112L19.4116 6.07139C19.4124 4.95153 18.9666 4.18985 18.0717 3.78641Z" fill="#231F20"/>
<path d="M40.3643 3.95833C39.6575 3.43938 38.7494 3.18045 37.6404 3.18036C36.7541 3.1801 36.0208 3.37396 35.4434 3.75948C35.1219 3.97669 34.7791 4.33077 34.4186 4.82318L34.4181 3.18045H31.6886V12.9795L34.5091 12.9796L34.5089 7.80049C34.5091 7.20811 34.6004 6.72252 34.7838 6.34191C35.1369 5.62085 35.7878 5.26067 36.737 5.26123C37.5098 5.26114 38.0332 5.50762 38.3089 5.99865C38.4584 6.2683 38.5351 6.6541 38.5344 7.15723L38.5339 12.9796L41.423 12.9801L41.4228 6.53458C41.423 5.33456 41.0702 4.47635 40.3643 3.95833Z" fill="#231F20"/>
<path d="M49.4846 10.2164C49.0604 10.7163 48.4519 10.9651 47.6603 10.9651C46.8681 10.9651 46.2593 10.7152 45.8316 10.2158C45.4037 9.71593 45.1891 9.00495 45.1893 8.08566C45.1896 7.16393 45.4041 6.45468 45.8311 5.95781C46.2598 5.4625 46.869 5.2123 47.6603 5.21258C48.4523 5.21258 49.06 5.46115 49.4851 5.95746C49.9083 6.4555 50.1208 7.1632 50.121 8.08412C50.1205 9.00567 49.9081 9.7161 49.4846 10.2164ZM51.6514 4.63793C50.7775 3.66667 49.45 3.18061 47.6697 3.18017C45.8896 3.18052 44.5618 3.66629 43.6893 4.63821C42.8155 5.6102 42.3779 6.75877 42.3777 8.08475C42.3782 9.43299 42.8159 10.5857 43.6886 11.5438C44.5623 12.5029 45.8906 12.9814 47.6683 12.9811C49.45 12.9806 50.7771 12.5033 51.6505 11.5431C52.5244 10.5861 52.9622 9.43255 52.9619 8.08456C52.9614 6.75905 52.5246 5.60901 51.6514 4.63793Z" fill="#231F20"/>
<path d="M29.3598 3.95857C28.6539 3.44106 27.7461 3.18197 26.6359 3.1816C25.7489 3.18097 25.0152 3.37508 24.4389 3.76162C24.1179 3.97792 23.7768 4.33236 23.4134 4.82367L23.4148 3.18232H20.6846L20.6851 12.9824L23.503 12.9813V7.80209C23.5019 7.20981 23.5955 6.72295 23.7796 6.34268C24.132 5.6239 24.7826 5.26263 25.7333 5.26263C26.5047 5.26347 27.0292 5.50911 27.3044 6.00098C27.4537 6.27007 27.529 6.65587 27.5295 7.15981L27.529 12.982L30.4186 12.9811L30.4174 6.53654C30.4181 5.33589 30.065 4.47714 29.3598 3.95857Z" fill="#231F20"/>
<path d="M62.5905 3.95758C61.8844 3.44092 60.9766 3.18134 59.8657 3.18108C58.9798 3.18089 58.2475 3.37412 57.671 3.75936C57.3488 3.97757 57.0075 4.33201 56.6457 4.82341L56.6455 3.18134H53.915L53.9153 12.9809L56.7339 12.9811L56.7332 7.80102C56.7335 7.20774 56.8273 6.72334 57.0098 6.34145C57.3629 5.62227 58.0147 5.26102 58.9623 5.26183C59.7356 5.26165 60.2594 5.50731 60.5348 5.99853C60.6843 6.26928 60.7604 6.65545 60.7611 7.15867L60.7604 12.9809L63.6488 12.9806L63.6492 6.5343C63.6497 5.3351 63.2969 4.47642 62.5905 3.95758Z" fill="#231F20"/>
<path d="M86.5798 0.002985L86.5803 12.9811L89.3253 12.98L89.325 0.00326443L86.5798 0.002985Z" fill="#231F20"/>
<path d="M4.78375 5.23079C5.40387 5.22889 5.87638 5.40338 6.15186 5.78827C6.34816 6.06255 6.36068 6.14298 6.45848 6.41064H9.20319C9.05275 5.09085 8.58033 4.47693 7.78307 3.95935C6.98363 3.43912 5.96 3.17929 4.70881 3.18194C3.23698 3.1851 2.08365 3.62853 1.24966 4.51355C0.414583 5.39984 -0.0024568 6.63729 1.08869e-05 8.22585C0.0018388 9.63471 0.38305 10.7794 1.14173 11.6614C1.90104 12.5448 3.08288 12.9849 4.68887 12.9813C6.29442 12.9788 7.50432 12.4465 8.32121 11.3865C8.8323 10.7274 9.14287 10.0299 9.20319 9.29253L6.56002 9.29826C6.50609 9.7854 6.30668 10.1814 6.05059 10.4897C5.79423 10.7948 5.36045 10.9496 4.74856 10.9502C3.88679 10.9512 3.29966 10.5685 2.9859 9.79722C2.81491 9.38506 2.72734 8.83994 2.72608 8.1615C2.72425 7.44898 2.80907 6.87987 2.98043 6.44972C3.30242 5.63895 3.90516 5.23079 4.78375 5.23079Z" fill="#231F20"/>
<path d="M82.3968 9.07698C82.3781 9.89039 81.9211 10.4486 81.4167 10.7549C80.9125 11.0628 80.3626 11.2165 79.7644 11.2165C79.3867 11.217 79.0681 11.1238 78.8039 10.9394C78.5407 10.7538 78.4085 10.4548 78.4092 10.0391C78.4099 9.57383 78.6237 9.2303 79.0554 9.00809C79.3098 8.87748 79.7295 8.7668 80.314 8.67664L80.9366 8.5732C81.2484 8.52323 81.492 8.46825 81.6705 8.40827C81.8488 8.34901 82.2208 8.27039 82.3968 8.17361V9.07698ZM83.9777 3.78449C83.0849 3.38152 82.0627 3.18057 80.9122 3.17994C79.1448 3.18039 77.8977 3.58854 77.1717 4.40623C76.7159 4.93016 76.4588 5.59843 76.401 6.40965L79.0395 6.40992C79.1048 6.05239 79.2365 5.76739 79.4295 5.55808C79.7024 5.27433 80.1647 5.13211 80.8207 5.13311C81.4047 5.1322 81.8486 5.20309 82.1497 5.34885C82.4513 5.4941 82.6017 5.75666 82.6022 6.13746C82.602 6.45001 82.4052 6.67958 82.0126 6.82643C81.7934 6.91233 81.4284 6.98394 80.9204 7.04002L79.9815 7.14208C78.9164 7.26223 78.1118 7.46125 77.5622 7.73828C76.5629 8.25148 76.0638 9.07833 76.0638 10.2191C76.0634 11.1005 76.3741 11.7809 76.9955 12.2606C77.6174 12.7405 78.4038 12.9804 79.3575 12.9792C80.1043 12.9795 80.774 12.8297 81.3647 12.5289C81.8603 12.2731 82.1984 12.054 82.5786 11.6912L82.5783 12.9795H85.3175L85.3177 6.06938C85.3184 4.94961 84.8727 4.18792 83.9777 3.78449Z" fill="#231F20"/>
<path d="M92.7903 7.13042C92.8783 6.52914 93.0945 6.053 93.4356 5.69991C93.7789 5.3482 94.2609 5.17217 94.883 5.17226C95.4553 5.1728 95.9331 5.33803 96.3201 5.66992C96.7066 6.00228 96.9223 6.4897 96.9656 7.13087L92.7903 7.13042ZM99.4024 6.89004C99.2899 6.16642 99.0428 5.52842 98.6631 4.98085C98.2433 4.35686 97.7089 3.90317 97.0622 3.61397C96.4148 3.32442 95.6886 3.18036 94.8818 3.18011C93.5236 3.18017 92.4186 3.60706 91.5669 4.46181C90.7164 5.31584 90.2903 6.54359 90.2918 8.14403C90.2906 9.85146 90.762 11.0843 91.7052 11.8434C92.6481 12.602 93.7368 12.9796 94.9714 12.9801C96.4647 12.9796 97.6259 12.5302 98.4569 11.6319C98.9904 11.0664 99.2901 10.5111 99.3554 9.96141L96.8818 9.96216C96.737 10.2334 96.5716 10.4457 96.3823 10.5985C96.0379 10.8801 95.5873 11.0214 95.0363 11.0207C94.5166 11.0214 94.0706 10.9062 93.7007 10.6739C93.0922 10.3013 92.7688 9.65088 92.7309 8.72478L99.4822 8.72387C99.4939 7.92682 99.4672 7.31355 99.4024 6.89004Z" fill="#231F20"/>
<path d="M99.2777 3.76499H99.3451C99.4237 3.76499 99.4873 3.73891 99.4873 3.67548C99.4873 3.61986 99.4464 3.58258 99.3563 3.58258C99.3191 3.58258 99.2927 3.58624 99.2777 3.58977V3.76499ZM99.274 4.11126H99.1317V3.50052C99.1879 3.48945 99.2665 3.48189 99.3678 3.48189C99.4838 3.48189 99.536 3.50052 99.5812 3.5267C99.6146 3.55259 99.6411 3.60122 99.6411 3.66076C99.6411 3.72774 99.5887 3.77981 99.5138 3.80226V3.80952C99.5737 3.83207 99.6074 3.8766 99.6261 3.95859C99.6448 4.05174 99.656 4.08899 99.671 4.11126H99.5173C99.4986 4.08899 99.4873 4.03311 99.4686 3.96222C99.4574 3.89514 99.42 3.86543 99.3414 3.86543H99.274V4.11126ZM98.8956 3.79091C98.8956 4.06282 99.098 4.27894 99.375 4.27894C99.6448 4.27894 99.8432 4.06282 99.8432 3.79482C99.8432 3.52279 99.6448 3.30313 99.3713 3.30313C99.098 3.30313 98.8956 3.52279 98.8956 3.79091ZM100.001 3.79091C100.001 4.13743 99.7272 4.40918 99.3713 4.40918C99.0192 4.40918 98.7384 4.13743 98.7384 3.79091C98.7384 3.45208 99.0192 3.18017 99.3713 3.18017C99.7272 3.18017 100.001 3.45208 100.001 3.79091Z" fill="#231F20"/>
</g>
<defs>
<clipPath id="clip0_38_1789">
<rect width="100" height="12.9825" fill="white"/>
</clipPath>
</defs>
</svg>
