<svg width="100" height="16" viewBox="0 0 100 16" fill="none" xmlns="http://www.w3.org/2000/svg">
<g clip-path="url(#clip0_38_1793)">
<path d="M26.108 1.67899C25.9424 1.34802 25.4967 1.06798 25.1274 1.06798H24.3632C23.9939 1.06798 23.5481 1.34802 23.3953 1.67899L17.3586 14.2811C17.1931 14.6121 17.3714 14.8539 17.7534 14.8539H19.1416C19.6893 14.8539 19.944 14.5994 20.0968 14.2938C20.2496 13.9883 20.5807 13.3137 20.6444 13.1864C20.7336 13.0082 21.001 12.8936 21.3704 12.8936H27.8655C28.2348 12.8936 28.4768 12.97 28.5914 13.1864C28.6679 13.3264 28.999 13.9247 29.1518 14.2557C29.3174 14.5866 29.5976 14.8539 30.1325 14.8539H32.1574C32.5267 14.8539 32.6923 14.5739 32.5649 14.3066C32.4121 14.0393 26.108 1.67899 26.108 1.67899ZM22.2873 10.946C21.918 10.946 21.7397 10.666 21.8925 10.335L24.2741 5.24323C24.4269 4.89953 24.6816 4.89953 24.8472 5.24323L27.1651 10.335C27.3179 10.6787 27.1396 10.946 26.7702 10.946H22.2873ZM72.7331 1.78082V14.2811C72.7331 14.6248 73.0387 14.8667 73.4081 14.8667H75.0637C75.433 14.8667 75.7387 14.6248 75.7387 14.2557V1.75537C75.7387 1.38621 75.4967 1.08071 75.1274 1.08071H73.4081C73.0387 1.06798 72.7331 1.29711 72.7331 1.78082ZM45.0968 9.60942C44.8803 9.30391 44.9949 8.96022 45.3515 8.85839C45.3515 8.85839 46.7779 8.43831 47.4529 7.81457C48.1406 7.20356 48.4717 6.3125 48.4717 5.16685C48.4717 4.41582 48.3444 3.77934 48.0769 3.25744C47.8095 2.74826 47.4401 2.31546 46.9435 1.99723C46.485 1.67899 45.8991 1.43713 45.2114 1.29711C44.5237 1.14435 43.6067 1.10617 43.6067 1.10617C43.2374 1.09344 42.6261 1.08071 42.244 1.08071H35.3923C35.0229 1.08071 34.7173 1.38621 34.7173 1.75537V14.2557C34.7173 14.6248 35.0229 14.8667 35.3923 14.8667H37.0097C37.379 14.8667 37.6847 14.6248 37.6847 14.2557V9.29118C37.6847 9.29118 37.6847 9.29119 37.6847 9.27846L40.7539 9.26573C41.1233 9.26573 41.6072 9.52032 41.8237 9.82582L45.0076 14.3193C45.3006 14.7139 45.5807 14.8667 45.9628 14.8667H48.0769C48.4463 14.8667 48.5099 14.5102 48.3826 14.332C48.2807 14.1411 45.0968 9.60942 45.0968 9.60942ZM43.8105 7.06354C43.3902 7.16537 42.919 7.1781 42.919 7.1781C42.5497 7.19083 41.9384 7.20356 41.5563 7.20356H38.3851C38.0158 7.20356 37.7101 6.89805 37.7101 6.5289V3.99574C37.7101 3.62659 38.0158 3.32108 38.3851 3.32108H41.5563C41.9256 3.32108 42.5369 3.33381 42.919 3.34654C42.919 3.34654 43.3902 3.35927 43.8105 3.46111C44.2308 3.56294 44.5619 3.69024 44.8039 3.86845C45.0458 4.04666 45.2241 4.25033 45.326 4.49219C45.4279 4.73405 45.4789 4.98864 45.4789 5.26869C45.4789 5.54873 45.4279 5.80332 45.326 6.04518C45.2241 6.28704 45.0458 6.49071 44.8039 6.65619C44.5619 6.83441 44.2308 6.97443 43.8105 7.06354ZM92.9827 1.06798C92.6133 1.06798 92.3077 1.30984 92.3077 1.67899V9.67307C92.3077 10.0422 92.0912 10.1313 91.8365 9.86401L83.8385 1.5517C83.5838 1.28438 83.2017 1.06798 82.6923 1.06798H81.1895C80.7183 1.06798 80.5145 1.32257 80.5145 1.57715V14.3575C80.5145 14.6121 80.7565 14.8539 81.1258 14.8539H82.6286C82.998 14.8539 83.2654 14.6503 83.2654 14.3066C83.2654 14.1284 83.2781 5.8797 83.2781 5.8797C83.2781 5.51055 83.4946 5.42144 83.7494 5.68876L92.0912 14.3575C92.3586 14.6248 92.677 14.8412 93.2501 14.8412H94.3836C94.7529 14.8412 95.0586 14.5357 95.0586 14.1666V1.74264C95.0586 1.37348 94.7529 1.06798 94.3836 1.06798H92.9827ZM60.3413 8.85839C60.163 9.18935 59.8574 9.18935 59.6791 8.85839L55.7692 1.67899C55.6037 1.34802 55.2598 1.06798 54.7886 1.06798H52.6617C52.2924 1.06798 51.9868 1.37348 51.9868 1.74264V14.2175C51.9868 14.5866 52.2287 14.8412 52.6617 14.8412H53.9862C54.3556 14.8412 54.6358 14.6121 54.6358 14.2429C54.6358 14.0647 54.6358 5.16685 54.6485 5.16685C54.6612 5.16685 59.539 14.2429 59.539 14.2429C59.7173 14.5739 60.1503 14.5739 60.3286 14.2429C60.3286 14.2429 65.2445 5.19231 65.2573 5.19231C65.27 5.19231 65.27 13.9883 65.27 14.2429C65.27 14.5994 65.5629 14.8412 65.9322 14.8412H67.4478C67.8171 14.8412 68.1228 14.6503 68.1228 14.1666V1.75537C68.1228 1.38621 67.8171 1.08071 67.4478 1.08071H65.4101C64.8879 1.08071 64.5823 1.34802 64.3912 1.66626L60.3413 8.85839ZM0 7.9546C0 14.6885 6.88996 15.0322 8.26541 15.0322C12.8375 15.0322 14.7733 13.7974 14.8497 13.7465C15.1299 13.581 15.4865 13.2628 15.4865 12.6518V7.99278C15.4865 7.55998 15.1426 7.21629 14.7096 7.21629H8.96587C8.53286 7.21629 8.25267 7.55998 8.25267 7.99278V8.4765C8.25267 8.9093 8.53286 9.253 8.96587 9.253H12.2899C12.6083 9.253 12.8757 9.52032 12.8757 9.83855C12.8757 9.83855 12.8757 11.8753 12.8757 12.0026C12.2134 12.2699 9.23332 13.1482 6.82629 12.5754C3.33673 11.748 3.06928 8.87111 3.06928 8.00551C3.06928 7.27994 3.28579 3.66478 7.56495 3.29563C11.029 3.00285 13.3087 4.39036 13.3342 4.41582C13.7417 4.63222 14.162 4.47946 14.3912 4.04666L14.8242 3.16833C15.0025 2.81191 14.9389 2.44275 14.5059 2.13725C14.4677 2.11179 12.0351 0.800659 8.27815 0.800659C0.229241 0.800659 0 7.21629 0 7.9546ZM98.4335 11.9898C99.2995 11.9898 100 12.6899 100 13.5555C100 14.4211 99.2995 15.1213 98.4335 15.1213C97.5675 15.1213 96.8543 14.4211 96.8543 13.5555C96.8543 12.6899 97.5675 11.9898 98.4335 11.9898ZM98.4335 14.9049C99.1594 14.9049 99.7071 14.3193 99.7071 13.5683C99.7071 12.8172 99.1594 12.2317 98.4335 12.2317C97.6949 12.2317 97.16 12.8172 97.16 13.5683C97.16 14.3193 97.7076 14.9049 98.4335 14.9049ZM97.8349 12.639H98.5354C98.9557 12.639 99.1722 12.8045 99.1722 13.1609C99.1722 13.4537 98.9811 13.6701 98.701 13.6701L99.2231 14.4848H98.9047L98.3953 13.6701H98.1406V14.4848H97.8349V12.639ZM98.1279 13.4282H98.4845C98.7137 13.4282 98.8665 13.3773 98.8665 13.1355C98.8665 12.9191 98.6755 12.8682 98.4845 12.8682H98.1279V13.4282Z" fill="black"/>
</g>
<defs>
<clipPath id="clip0_38_1793">
<rect width="100" height="14.3333" fill="white" transform="translate(0 0.800659)"/>
</clipPath>
</defs>
</svg>
