<svg width="441" height="441" viewBox="0 0 441 441" fill="none" xmlns="http://www.w3.org/2000/svg">
<g opacity="0.25">
<path d="M441 132.3L418.95 110.25L385.875 143.325L352.8 110.25L330.75 132.3L363.825 165.375L330.75 198.45L352.8 220.5L385.875 187.425L418.95 220.5L441 198.45L407.925 165.375L441 132.3Z" fill="#FFF7E8"/>
<path d="M165.375 396.9C207.998 396.9 242.55 362.348 242.55 319.725C242.55 277.102 207.998 242.55 165.375 242.55C122.752 242.55 88.2 277.102 88.2 319.725C88.2 362.348 122.752 396.9 165.375 396.9Z" fill="#FFF7E8"/>
<path d="M154.35 110.25C178.706 110.25 198.45 90.5058 198.45 66.15C198.45 41.7942 178.706 22.05 154.35 22.05C129.994 22.05 110.25 41.7942 110.25 66.15C110.25 90.5058 129.994 110.25 154.35 110.25Z" fill="#FFF7E8"/>
<path d="M286.65 176.4C298.828 176.4 308.7 166.528 308.7 154.35C308.7 142.172 298.828 132.3 286.65 132.3C274.472 132.3 264.6 142.172 264.6 154.35C264.6 166.528 274.472 176.4 286.65 176.4Z" fill="#FFF7E8"/>
<path d="M220.5 154.35C232.678 154.35 242.55 144.478 242.55 132.3C242.55 120.122 232.678 110.25 220.5 110.25C208.322 110.25 198.45 120.122 198.45 132.3C198.45 144.478 208.322 154.35 220.5 154.35Z" fill="#FFF7E8"/>
<path d="M66.15 88.2C78.3279 88.2 88.2 78.3279 88.2 66.15C88.2 53.9721 78.3279 44.1 66.15 44.1C53.9721 44.1 44.1 53.9721 44.1 66.15C44.1 78.3279 53.9721 88.2 66.15 88.2Z" fill="#FFF7E8"/>
<path d="M22.05 154.35C34.2279 154.35 44.1 144.478 44.1 132.3C44.1 120.122 34.2279 110.25 22.05 110.25C9.87212 110.25 0 120.122 0 132.3C0 144.478 9.87212 154.35 22.05 154.35Z" fill="#FFF7E8"/>
<path d="M22.05 220.5C34.2279 220.5 44.1 210.628 44.1 198.45C44.1 186.272 34.2279 176.4 22.05 176.4C9.87212 176.4 0 186.272 0 198.45C0 210.628 9.87212 220.5 22.05 220.5Z" fill="#FFF7E8"/>
<path d="M66.15 286.65C78.3279 286.65 88.2 276.778 88.2 264.6C88.2 252.422 78.3279 242.55 66.15 242.55C53.9721 242.55 44.1 252.422 44.1 264.6C44.1 276.778 53.9721 286.65 66.15 286.65Z" fill="#FFF7E8"/>
</g>
</svg>
