<svg width="100" height="46" viewBox="0 0 100 46" fill="none" xmlns="http://www.w3.org/2000/svg">
<g clip-path="url(#clip0_38_1790)">
<path d="M21.0246 2.52161C12.7114 2.52161 3.86657 16.7762 1.78827 22.6913C0.579957 26.1337 -1.06335 33.8428 3.23825 33.8428C4.78489 33.8428 6.37986 33.4549 6.86319 32.0489C7.44318 30.4489 5.26821 30.1095 4.59156 29.4307C2.80326 27.6368 3.47991 25.1155 4.49489 22.3034C5.41321 19.6852 9.52147 11.0065 13.3881 11.0065C17.6897 11.0065 15.1764 17.5519 14.6931 20.461C11.9864 31.2246 3.04492 42.1822 2.99658 42.3277C2.70659 43.2004 3.23825 43.7822 3.86657 43.7822C4.25323 43.7822 5.26821 43.2489 5.26821 43.2489C13.1464 38.061 17.0614 30.4974 19.9613 22.3519C21.1213 19.2004 26.0995 2.52161 21.0246 2.52161Z" fill="#231F20"/>
<path d="M100.242 30.4004C99.9034 29.5276 98.8884 31.37 98.8884 31.37C95.9401 36.0246 91.7352 36.6064 90.4302 36.6064C88.5936 36.6064 89.4152 33.8913 89.4635 33.7458C89.5119 33.6003 89.5602 33.4064 89.6085 33.2125C90.6235 33.164 94.2001 33.261 97.2934 28.9458C98.0184 27.9276 100.435 22.8852 95.3601 22.8852C92.1702 22.8852 90.2369 24.8731 90.1402 24.97C90.0919 24.6307 90.1402 24.0003 89.9469 23.7094C89.6569 23.2246 89.1252 22.8852 88.4002 22.9337C86.4669 23.1761 84.7753 25.3094 84.7269 25.261C84.7269 25.261 84.6786 25.164 84.6303 25.067C84.6303 25.067 84.1953 23.0307 82.9386 22.9337C82.3103 22.8852 81.4887 23.1276 80.6187 23.5155C79.2654 24.1458 77.6704 25.4549 76.4138 26.6185C76.4621 24.1458 75.3504 22.9337 72.9821 22.9337C71.8222 22.9337 70.8072 23.1276 69.8405 23.564C68.8739 23.9519 68.0522 24.4852 67.2306 25.164C66.4573 25.7943 65.7323 26.57 65.1523 27.3943C64.524 28.2185 64.0406 29.0913 63.5573 29.964C63.1223 30.8367 62.7356 31.661 62.494 32.4852C62.204 33.3094 62.0107 34.0367 61.914 34.667C61.8173 35.2973 61.769 35.8307 61.769 36.364C61.3823 36.5579 60.609 36.7034 60.2224 36.7034C59.739 36.7034 59.449 36.6064 59.2557 36.461C59.0624 36.267 59.014 35.9761 59.1107 35.4913C59.159 35.1519 59.2557 34.8125 59.449 34.4246L65.4906 18.861C66.7956 14.9337 67.8589 17.0185 68.6805 19.5882C69.1639 20.9943 70.9038 18.2791 69.5505 15.1761C68.7289 13.3337 67.7622 11.8791 66.6989 11.0064C65.4423 9.93975 64.234 10.2791 63.3156 12.364L60.754 18.9094L58.4824 24.6791C58.4824 24.6791 58.724 23.0791 56.0658 23.0791C55.0991 23.0791 54.1808 23.2731 53.3591 23.6125C52.5375 23.9519 51.7158 24.4367 50.9908 25.067C50.2659 25.6488 49.5892 26.3761 48.9609 27.1519C48.3809 27.9276 47.8492 28.7519 47.3659 29.6246C46.9309 30.4973 46.5442 31.3216 46.2059 32.1943C45.9159 33.067 45.7226 33.6488 45.5776 34.4246C45.4809 34.9094 45.4326 35.6367 45.4326 36.0731C44.8526 36.7034 44.2726 36.7519 43.6443 36.7519C42.726 36.7519 42.3877 36.267 42.5326 35.3458C42.581 35.0064 42.6776 34.667 42.871 34.2791L47.1726 23.2731C47.1726 23.2731 43.9343 22.6428 42.436 23.2731C42.001 23.467 41.7593 23.661 41.6627 23.9034C41.6143 23.8064 41.5177 23.7094 41.421 23.6125C41.0827 23.2731 40.406 23.1276 39.4877 23.1276C38.521 23.1276 37.6027 23.3216 36.7811 23.661C35.9594 24.0004 35.1378 24.4852 34.4128 25.1155C33.6878 25.6973 33.0111 26.4246 32.3828 27.2003C31.8028 27.9761 31.2712 28.8004 30.7878 29.6731C30.3528 30.4973 30.0145 31.2731 29.6762 32.0973C28.9512 33.4064 27.8879 34.4246 26.7279 35.1034C27.6946 32.8731 28.1296 29.6246 27.4046 24.97L27.2112 23.8549C27.1146 23.5155 27.0179 23.2246 26.9212 22.9822C26.2929 21.6731 25.3263 21.5761 24.118 22.4488C22.088 23.9519 19.768 30.2064 20.2997 32.8731C20.348 33.1155 20.3963 33.164 20.493 33.1155C20.783 32.9216 21.2663 31.9034 21.8947 29.964C21.8947 29.964 21.8947 29.9155 21.943 29.9155C21.943 29.9155 25.4713 36.3155 19.6714 37.6731C17.0614 38.2549 17.6414 35.1519 18.2214 34.0852C18.2697 33.9397 18.3664 33.7943 18.2697 33.7943C17.7381 33.8428 16.4331 34.8125 15.5631 36.4125C14.5481 38.3519 15.0798 40.4367 17.5447 40.4367C22.9096 40.4367 26.0996 38.2064 28.9029 36.3155C28.9029 36.7034 28.9029 36.9943 28.9512 37.1397C29.0962 37.8185 29.2895 38.3519 29.6279 38.7882C29.9662 39.2246 30.4012 39.5155 30.8845 39.7094C31.3678 39.9034 31.8995 40.0003 32.4795 40.0003C33.0595 40.0003 33.6395 39.9034 34.1228 39.7579C34.6544 39.564 35.1378 39.37 35.5728 39.0791C36.0078 38.7882 36.4427 38.4488 36.8294 38.1094C37.2161 37.77 37.5544 37.3822 37.8927 36.9943C37.8444 37.964 38.0377 38.7397 38.521 39.2731C39.0044 39.8064 39.681 40.0488 40.5993 40.0488C41.0343 40.0488 41.566 40.0004 42.146 39.8549C42.726 39.7094 43.3543 39.467 44.031 39.0306C44.5626 38.6913 45.0943 38.2549 45.6743 37.6731C45.8193 38.1579 46.0126 38.5458 46.2543 38.8852C46.5926 39.3216 47.0276 39.6125 47.5109 39.8064C47.9942 40.0003 48.5259 40.0973 49.1059 40.0973C49.6859 40.0973 50.2659 40.0004 50.7492 39.8549C51.2808 39.661 51.7642 39.467 52.1992 39.1761C52.6341 38.8852 53.0691 38.5458 53.4558 38.2064C53.8425 37.867 54.1808 37.4791 54.4708 37.0913C54.4225 38.0125 54.6641 38.7397 55.1474 39.1761C55.6308 39.661 56.3074 39.9034 57.2257 39.9034C57.6607 39.9034 58.1924 39.8549 58.7724 39.7579C59.3524 39.661 61.8173 38.4488 62.2523 38.1094C62.3973 38.4004 62.5906 38.6913 62.784 38.9337C63.1706 39.3701 63.654 39.661 64.2823 39.8549C64.9106 40.0488 65.5873 40.1458 66.3606 40.1458C67.3756 40.1458 68.3422 39.9034 69.3572 39.467C70.3722 39.0306 71.2422 38.3519 72.0638 37.4791C72.8855 36.6064 73.6588 35.5882 74.3355 34.3276C75.0121 33.1155 75.4954 31.7094 75.9304 30.2064C76.1238 29.6246 76.1721 29.3337 76.2688 28.8973C76.5104 28.7034 76.8004 28.5094 77.0904 28.3155C78.0087 27.6852 79.072 27.2488 79.072 27.2488C79.1687 27.2004 79.2654 27.2488 79.217 27.3458C77.5254 32.4367 74.5288 39.8064 74.5288 39.8064C74.4805 39.9034 74.5288 40.0003 74.6255 40.0003H78.9754C79.072 40.0003 79.1687 39.9034 79.217 39.8064C79.217 39.8064 83.8086 27.3943 85.5486 26.764C87.1436 26.1337 87.7236 27.5882 87.5302 27.9276C86.9502 28.8488 86.3703 29.7216 86.0319 30.4004C85.5969 31.2731 85.2586 32.0973 84.9686 32.9216C84.6786 33.7458 84.4853 34.4731 84.3886 35.1034C84.0503 36.9943 84.292 38.3034 85.0653 39.1276C85.8386 39.9519 86.9986 40.3397 88.5452 40.3397C88.5452 40.3397 88.6419 40.3397 88.6902 40.3397C89.3185 40.3397 90.4785 40.2428 92.1702 39.661C98.6467 37.3822 100.773 31.8064 100.242 30.4004ZM91.2035 29.2852C91.6385 28.4609 92.0735 27.7822 92.5568 27.1034C93.0401 26.4731 93.4751 25.9397 93.9585 25.5034C94.4418 25.067 94.8768 24.8731 95.2634 24.8731C95.5534 24.8731 95.7468 24.97 95.8434 25.2125C95.9401 25.4549 95.9401 25.7943 95.8434 26.1822C95.6984 26.9094 95.4568 27.5397 95.1184 28.17C94.7318 28.8004 94.2968 29.3822 93.7651 29.867C93.2335 30.3519 92.6535 30.7882 92.0252 31.0791C91.3968 31.4185 90.7685 31.564 90.0919 31.6125C90.3819 30.8852 90.7685 30.0609 91.2035 29.2852ZM41.3243 25.6973C39.826 30.3519 38.3761 33.7458 38.3761 33.7458C38.1827 34.2307 37.9411 34.667 37.6994 35.0064C37.4577 35.3458 37.1677 35.6852 36.8294 35.9276C36.5394 36.17 36.2011 36.364 35.9111 36.461C35.6211 36.6064 35.3311 36.6549 35.0894 36.6549C34.9444 36.6549 34.7511 36.6549 34.6061 36.6064C34.4128 36.5579 34.2678 36.4609 34.1228 36.3155C33.9778 36.17 33.8811 35.8791 33.8328 35.5397C33.7845 35.2004 33.7845 34.7155 33.9295 34.0852C34.0745 33.3094 34.3161 32.3882 34.7511 31.37C35.1378 30.3034 35.6211 29.3337 36.2011 28.4125C36.7811 27.4913 37.3611 26.667 38.0861 26.0367C38.7627 25.4064 39.4394 25.067 40.1644 25.067C40.696 25.067 41.4693 25.261 41.3243 25.6973ZM57.9024 26.1822L54.9541 33.8913C54.5674 34.8125 54.0841 35.4913 53.4075 35.9276C52.7791 36.364 52.2475 36.6064 51.7642 36.6064C51.6192 36.6064 51.4258 36.6064 51.2808 36.5579C51.0875 36.5094 50.9425 36.4125 50.7975 36.267C50.6525 36.1216 50.5558 35.8307 50.5075 35.4913C50.4592 35.1519 50.4592 34.667 50.6042 34.0367C50.7492 33.261 50.9908 32.3397 51.4258 31.3216C51.8125 30.2549 52.2958 29.2852 52.8758 28.364C53.4558 27.4428 54.0358 26.6185 54.7608 25.9882C55.4374 25.3579 56.1141 25.0185 56.8391 25.0185C58.4341 25.067 57.9024 26.0367 57.9024 26.1822ZM73.7555 27.9761C71.6772 34.8125 69.8889 36.0246 69.4055 36.364C68.9222 36.7034 68.4872 36.8973 68.1006 36.8973C67.8106 36.8973 67.5206 36.8488 67.3272 36.8003C67.1339 36.7034 66.9889 36.6064 66.8922 36.364C66.7956 36.17 66.7472 35.8791 66.7472 35.5397C66.7472 35.2004 66.7956 34.764 66.8922 34.1822C67.0372 33.3579 67.3272 32.4367 67.7622 31.37C68.1972 30.3034 68.6805 29.2852 69.2605 28.3155C69.8405 27.3458 70.4205 26.57 71.0488 25.8913C71.6772 25.2125 72.3055 24.9216 72.8855 24.9216C74.1905 24.97 74.2871 26.2307 73.7555 27.9761Z" fill="#231F20"/>
</g>
<defs>
<clipPath id="clip0_38_1790">
<rect width="100" height="45.3333" fill="white" transform="translate(0 0.533691)"/>
</clipPath>
</defs>
</svg>
