<svg width="101" height="100" viewBox="0 0 101 100" fill="none" xmlns="http://www.w3.org/2000/svg">
<path d="M21.3333 91.6667C19.0417 91.6667 17.0792 90.85 15.4458 89.2167C13.8125 87.5833 12.9972 85.6222 13 83.3333V25C13 22.7083 13.8167 20.7458 15.45 19.1125C17.0833 17.4792 19.0445 16.6639 21.3333 16.6667H25.5V12.5C25.5 11.3194 25.9 10.3292 26.7 9.52916C27.5 8.72916 28.4889 8.33055 29.6667 8.33333C30.8472 8.33333 31.8375 8.73333 32.6375 9.53333C33.4375 10.3333 33.8361 11.3222 33.8333 12.5V16.6667H67.1667V12.5C67.1667 11.3194 67.5667 10.3292 68.3667 9.52916C69.1667 8.72916 70.1556 8.33055 71.3333 8.33333C72.5139 8.33333 73.5042 8.73333 74.3042 9.53333C75.1042 10.3333 75.5028 11.3222 75.5 12.5V16.6667H79.6667C81.9583 16.6667 83.9208 17.4833 85.5542 19.1167C87.1875 20.75 88.0028 22.7111 88 25V83.3333C88 85.625 87.1833 87.5875 85.55 89.2208C83.9167 90.8542 81.9556 91.6694 79.6667 91.6667H21.3333ZM21.3333 83.3333H79.6667V41.6667H21.3333V83.3333Z" fill="#684500"/>
</svg>
