<svg width="101" height="100" viewBox="0 0 101 100" fill="none" xmlns="http://www.w3.org/2000/svg">
<path d="M54.6667 52.5V37.5C54.6667 36.3194 54.2667 35.3292 53.4667 34.5292C52.6667 33.7292 51.6778 33.3306 50.5 33.3333C49.3195 33.3333 48.3292 33.7333 47.5292 34.5333C46.7292 35.3333 46.3306 36.3222 46.3333 37.5V54.0625C46.3333 54.6181 46.4375 55.1569 46.6458 55.6792C46.8542 56.2014 47.1667 56.6694 47.5833 57.0833L59.25 68.75C60.0139 69.5139 60.9861 69.8958 62.1667 69.8958C63.3472 69.8958 64.3195 69.5139 65.0833 68.75C65.8472 67.9861 66.2292 67.0139 66.2292 65.8333C66.2292 64.6528 65.8472 63.6806 65.0833 62.9167L54.6667 52.5ZM50.5 91.6667C45.2917 91.6667 40.4125 90.6764 35.8625 88.6958C31.3125 86.7153 27.3542 84.0431 23.9875 80.6792C20.6208 77.3097 17.9486 73.3514 15.9708 68.8042C13.9931 64.257 13.0028 59.3778 13 54.1667C13 48.9583 13.9903 44.0792 15.9708 39.5292C17.9514 34.9792 20.6236 31.0208 23.9875 27.6542C27.357 24.2875 31.3153 21.6153 35.8625 19.6375C40.4097 17.6597 45.2889 16.6694 50.5 16.6667C55.7083 16.6667 60.5875 17.6569 65.1375 19.6375C69.6875 21.6181 73.6458 24.2917 77.0125 27.6583C80.3792 31.025 83.0528 34.9833 85.0333 39.5333C87.0139 44.0833 88.0028 48.9611 88 54.1667C88 59.375 87.0097 64.2542 85.0292 68.8042C83.0486 73.3542 80.3764 77.3125 77.0125 80.6792C73.6431 84.0458 69.6847 86.7195 65.1375 88.7C60.5903 90.6806 55.7111 91.6694 50.5 91.6667ZM9.04168 30.4167C8.27779 29.6528 7.89584 28.6806 7.89584 27.5C7.89584 26.3194 8.27779 25.3472 9.04168 24.5833L20.9167 12.7083C21.6806 11.9444 22.6528 11.5625 23.8333 11.5625C25.0139 11.5625 25.9861 11.9444 26.75 12.7083C27.5139 13.4722 27.8958 14.4444 27.8958 15.625C27.8958 16.8056 27.5139 17.7778 26.75 18.5417L14.875 30.4167C14.1111 31.1806 13.1389 31.5625 11.9583 31.5625C10.7778 31.5625 9.80557 31.1806 9.04168 30.4167ZM91.9583 30.4167C91.1945 31.1806 90.2222 31.5625 89.0417 31.5625C87.8611 31.5625 86.8889 31.1806 86.125 30.4167L74.25 18.5417C73.4861 17.7778 73.1042 16.8056 73.1042 15.625C73.1042 14.4444 73.4861 13.4722 74.25 12.7083C75.0139 11.9444 75.9861 11.5625 77.1667 11.5625C78.3472 11.5625 79.3195 11.9444 80.0833 12.7083L91.9583 24.5833C92.7222 25.3472 93.1042 26.3194 93.1042 27.5C93.1042 28.6806 92.7222 29.6528 91.9583 30.4167Z" fill="#684500"/>
</svg>
