<svg width="100" height="100" viewBox="0 0 100 100" fill="none" xmlns="http://www.w3.org/2000/svg">
<path d="M50 91.6667C42.6389 91.6667 36.6319 90.5028 31.9792 88.175C27.3264 85.8472 25 82.8445 25 79.1667C25 76.7361 26.0069 74.6181 28.0208 72.8125C30.0347 71.007 32.8125 69.5834 36.3542 68.5417L38.75 76.4584C37.5694 76.8056 36.4931 77.2403 35.5208 77.7625C34.5486 78.2847 33.8889 78.7528 33.5417 79.1667C34.4444 80.2778 36.5278 81.25 39.7917 82.0834C43.0556 82.9167 46.4583 83.3334 50 83.3334C53.5417 83.3334 56.9625 82.9167 60.2625 82.0834C63.5625 81.25 65.6625 80.2778 66.5625 79.1667C66.2153 78.75 65.5556 78.2806 64.5833 77.7584C63.6111 77.2361 62.5347 76.8028 61.3542 76.4584L63.75 68.5417C67.2917 69.5834 70.0528 71.007 72.0333 72.8125C74.0139 74.6181 75.0028 76.7361 75 79.1667C75 82.8472 72.6736 85.8514 68.0208 88.1792C63.3681 90.507 57.3611 91.6695 50 91.6667ZM50 63.8542C51.25 61.5625 52.5694 59.4611 53.9583 57.55C55.3472 55.6389 56.7014 53.8167 58.0208 52.0833C60.5903 48.75 62.6389 45.7458 64.1667 43.0708C65.6944 40.3958 66.4583 37.0806 66.4583 33.125C66.4583 28.5417 64.8611 24.6528 61.6667 21.4583C58.4722 18.2639 54.5833 16.6667 50 16.6667C45.4167 16.6667 41.5278 18.2639 38.3333 21.4583C35.1389 24.6528 33.5417 28.5417 33.5417 33.125C33.5417 37.0833 34.3056 40.4 35.8333 43.075C37.3611 45.75 39.4097 48.7528 41.9792 52.0833C43.2986 53.8195 44.6528 55.6431 46.0417 57.5542C47.4306 59.4653 48.75 61.5653 50 63.8542ZM50 79.1667C49.2361 79.1667 48.5417 78.9403 47.9167 78.4875C47.2917 78.0347 46.8403 77.4278 46.5625 76.6667C44.9653 71.7361 42.9514 67.6042 40.5208 64.2708C38.0903 60.9375 35.7292 57.7431 33.4375 54.6875C31.2153 51.632 29.2889 48.4722 27.6583 45.2083C26.0278 41.9445 25.2111 37.9167 25.2083 33.125C25.2083 26.1806 27.6042 20.3125 32.3958 15.5208C37.1875 10.7292 43.0556 8.33334 50 8.33334C56.9444 8.33334 62.8125 10.7292 67.6042 15.5208C72.3958 20.3125 74.7917 26.1806 74.7917 33.125C74.7917 37.9167 73.9931 41.9445 72.3958 45.2083C70.7986 48.4722 68.8542 51.632 66.5625 54.6875C64.3403 57.7431 61.9972 60.9375 59.5333 64.2708C57.0694 67.6042 55.0375 71.7361 53.4375 76.6667C53.1597 77.4306 52.7083 78.0389 52.0833 78.4917C51.4583 78.9445 50.7639 79.1695 50 79.1667ZM50 41.9792C52.4306 41.9792 54.5139 41.1111 56.25 39.375C57.9861 37.6389 58.8542 35.5556 58.8542 33.125C58.8542 30.6945 57.9861 28.6111 56.25 26.875C54.5139 25.1389 52.4306 24.2708 50 24.2708C47.5694 24.2708 45.4861 25.1389 43.75 26.875C42.0139 28.6111 41.1458 30.6945 41.1458 33.125C41.1458 35.5556 42.0139 37.6389 43.75 39.375C45.4861 41.1111 47.5694 41.9792 50 41.9792Z" fill="#684500"/>
</svg>
