<svg width="100" height="100" viewBox="0 0 100 100" fill="none" xmlns="http://www.w3.org/2000/svg">
<path d="M50 91.6667C48.8194 91.6667 47.8292 91.2667 47.0292 90.4667C46.2292 89.6667 45.8306 88.6778 45.8333 87.5V75H27.6042C26.7708 75 25.9542 74.8264 25.1542 74.4792C24.3542 74.1319 23.6778 73.6805 23.125 73.125L16.875 66.875C16.25 66.25 15.7986 65.5555 15.5208 64.7917C15.2431 64.0278 15.1042 63.2639 15.1042 62.5C15.1042 61.7361 15.2431 60.9722 15.5208 60.2083C15.7986 59.4444 16.25 58.75 16.875 58.125L23.125 51.875C23.6806 51.3194 24.3583 50.868 25.1583 50.5208C25.9583 50.1736 26.7736 50 27.6042 50H45.8333V41.6667H22.9167C21.1806 41.6667 19.7042 41.0583 18.4875 39.8417C17.2708 38.625 16.6639 37.15 16.6667 35.4167V22.9167C16.6667 21.1805 17.275 19.7042 18.4917 18.4875C19.7083 17.2708 21.1833 16.6639 22.9167 16.6667H45.8333V12.5C45.8333 11.3194 46.2333 10.3292 47.0333 9.52916C47.8333 8.72916 48.8222 8.33055 50 8.33333C51.1806 8.33333 52.1708 8.73333 52.9708 9.53333C53.7708 10.3333 54.1694 11.3222 54.1667 12.5V16.6667H72.3958C73.2292 16.6667 74.0458 16.8403 74.8458 17.1875C75.6458 17.5347 76.3222 17.9861 76.875 18.5417L83.125 24.7917C83.75 25.4167 84.2014 26.1111 84.4792 26.875C84.7569 27.6389 84.8958 28.4028 84.8958 29.1667C84.8958 29.9305 84.7569 30.6944 84.4792 31.4583C84.2014 32.2222 83.75 32.9167 83.125 33.5417L76.875 39.7917C76.3194 40.3472 75.6417 40.7986 74.8417 41.1458C74.0417 41.493 73.2264 41.6667 72.3958 41.6667H54.1667V50H77.0833C78.8194 50 80.2958 50.6083 81.5125 51.825C82.7292 53.0417 83.3361 54.5167 83.3333 56.25V68.75C83.3333 70.4861 82.725 71.9625 81.5083 73.1792C80.2917 74.3958 78.8167 75.0028 77.0833 75H54.1667V87.5C54.1667 88.6805 53.7667 89.6708 52.9667 90.4708C52.1667 91.2708 51.1778 91.6694 50 91.6667Z" fill="#684500"/>
</svg>
