<svg width="100" height="23" viewBox="0 0 100 23" fill="none" xmlns="http://www.w3.org/2000/svg">
<g clip-path="url(#clip0_38_1794)">
<path d="M92.6612 15.469C91.7007 16.4275 90.3935 16.9485 89.04 16.9485H88.0937H83.4075H70.4479H66.5096C66.1135 16.9485 65.7178 16.948 65.3217 16.9476C64.868 16.9471 64.4142 16.9462 63.9605 16.9456C63.5001 16.748 63.0673 16.4872 62.6778 16.173C61.9763 15.6071 61.418 14.8666 61.0673 14.0369C60.3484 12.3399 60.5422 10.3378 61.5751 8.81083C62.0767 8.07028 62.7548 7.45809 63.544 7.03689C63.726 6.94012 63.8769 6.83418 64.0783 6.83418H67.2468H79.9912C82.553 6.83418 85.1159 6.83775 87.6777 6.83775C88.3283 6.83775 88.9961 6.79701 89.6441 6.86831C90.9227 7.00837 92.1167 7.64705 92.9477 8.62697C94.6301 10.6102 94.4981 13.6319 92.6612 15.469ZM7.34213 8.31719C8.29039 7.36375 9.59348 6.83407 10.9369 6.83407H11.4008H13.9973H24.1157H37.4759H50.0883H57.962H58.8975C57.1305 9.94649 57.1294 13.832 58.8954 16.945H54.328H43.2873H29.7629H17.7444H11.2223C9.98654 16.945 8.80733 16.6552 7.81319 15.882C5.44815 14.0429 5.2116 10.4324 7.34213 8.31719ZM95.5172 5.12939C93.43 3.27091 90.6632 2.32715 87.8842 2.32715H86.7223H80.3726H69.9886H57.1682H43.5081H30.6077H20.0636H13.4747H12.1625C9.68015 2.32715 7.21925 3.04885 5.21618 4.53502C2.30614 6.69452 0.720602 10.3407 1.5878 13.9217C2.4443 17.4568 5.45681 20.0798 8.89248 21.0287C10.6891 21.5252 12.5101 21.4555 14.348 21.4555H21.8113H32.9258H46.0939H59.7173H72.1981H81.9382H87.3402C88.0825 21.4555 88.8192 21.4463 89.5574 21.346C93.0849 20.8672 96.4277 18.7286 97.9001 15.4221C99.4963 11.8371 98.4033 7.70703 95.5172 5.12939Z" fill="#D0D2D3"/>
<path d="M97.9669 11.8897C97.9669 9.4613 96.8683 7.25953 95.0589 5.64042C93.2465 4.02539 90.7265 3.01338 87.9317 3.01338H12.0682C9.27337 3.01338 6.75334 4.02539 4.944 5.64042C3.1316 7.25953 2.03294 9.4613 2.03294 11.8897C2.03294 14.3217 3.1316 16.5234 4.944 18.142C6.75334 19.7576 9.27337 20.7696 12.0682 20.7696H87.9317C90.7265 20.7696 93.2465 19.7576 95.0589 18.142C96.8683 16.5234 97.9669 14.3217 97.9669 11.8897ZM99.3506 11.8897C99.3542 14.747 98.0495 17.3292 95.9792 19.1744C93.9088 21.0197 91.063 22.1519 87.9317 22.1519H12.0682C8.94046 22.1519 6.09415 21.0197 4.02429 19.1744C1.95035 17.3292 0.649292 14.747 0.649292 11.8897C0.649292 9.03602 1.95035 6.45329 4.02429 4.60804C6.09415 2.7628 8.94046 1.6311 12.0682 1.6311H87.9317C91.063 1.6311 93.9088 2.7628 95.9792 4.60804C98.0495 6.45329 99.3541 9.03602 99.3506 11.8897Z" fill="#231F20"/>
<path d="M58.2448 11.8931C58.2448 14.047 58.9554 16.0293 60.1535 17.6311H10.9178C7.74575 17.6311 5.17065 15.0621 5.17065 11.8896C5.17065 10.3051 5.81303 8.86781 6.85662 7.83237C7.89359 6.78981 9.33179 6.14807 10.9178 6.14807H60.1571C58.9554 7.74986 58.2448 9.73925 58.2448 11.8896V11.8931Z" fill="#231F20"/>
<path d="M94.8324 11.8931C94.8324 13.4776 94.1906 14.9113 93.147 15.9539C92.11 16.9898 90.6713 17.6346 89.0853 17.6346H66.0965C66.0486 17.6346 63.81 17.6311 63.81 17.6311C63.0376 17.3189 62.3438 16.8528 61.7636 16.2732C60.641 15.1512 59.9476 13.6044 59.9476 11.8896C59.9476 10.1783 60.641 8.63148 61.7636 7.50998C62.3438 6.92681 63.0412 6.46385 63.8136 6.14807H87.5507C87.5986 6.14807 87.6501 6.14807 87.698 6.15164H89.0853C92.2573 6.15164 94.8324 8.72062 94.8324 11.8931Z" fill="#231F20"/>
<path d="M65.9962 8.06409H88.9849C91.1012 8.06409 92.8162 9.77793 92.8162 11.8916C92.8162 14.0057 91.1012 15.7196 88.9849 15.7196H65.9962C63.8805 15.7196 62.1649 14.0057 62.1649 11.8916C62.1649 9.77793 63.8805 8.06409 65.9962 8.06409Z" fill="white"/>
<path d="M88.8889 10.4159V13.6587H89.4247V12.2439H90.4367V11.816H89.4247V10.8438H90.6896V10.4159H88.8889ZM87.0209 10.8C87.3033 10.8 87.415 10.9701 87.4884 11.1306C87.6051 11.403 87.6194 11.8161 87.6194 12.0397C87.6194 12.2149 87.6097 12.6575 87.4884 12.9442C87.415 13.1098 87.2982 13.2748 87.0254 13.2748C86.768 13.2748 86.6411 13.153 86.5488 12.9442C86.432 12.6672 86.4172 12.2342 86.4172 12.0397C86.4172 11.8405 86.4274 11.4076 86.5488 11.1306C86.6268 10.9559 86.7435 10.8 87.0209 10.8ZM87.0209 10.3574C86.0476 10.3574 85.8529 11.2961 85.8529 12.0397C85.8529 12.7935 86.0522 13.7174 87.0254 13.7174C88.0334 13.7174 88.1843 12.7059 88.1843 12.0397C88.1843 11.2813 87.9895 10.3574 87.0209 10.3574ZM84.092 10.8C84.3745 10.8 84.4861 10.9701 84.5595 11.1306C84.6758 11.403 84.6905 11.8161 84.6905 12.0397C84.6905 12.2149 84.6808 12.6575 84.5595 12.9442C84.4861 13.1098 84.3693 13.2748 84.0966 13.2748C83.8391 13.2748 83.7122 13.153 83.6199 12.9442C83.5032 12.6672 83.4884 12.2342 83.4884 12.0397C83.4884 11.8405 83.4981 11.4076 83.6199 11.1306C83.6979 10.9559 83.8147 10.8 84.092 10.8ZM84.092 10.3574C83.1188 10.3574 82.924 11.2961 82.924 12.0397C82.924 12.7935 83.1234 13.7174 84.0966 13.7174C85.104 13.7174 85.2554 12.7059 85.2554 12.0397C85.2554 11.2813 85.0607 10.3574 84.092 10.3574ZM81.2692 10.8292C81.3814 10.8292 81.7995 10.8292 81.7995 11.3349C81.7995 11.6558 81.6491 11.8891 81.2647 11.8891H80.8507V10.8292H81.2692ZM80.3154 10.4161V13.6589H80.8507V12.3021H81.3569L81.8678 13.6589H82.4469L81.829 12.1906C81.9703 12.1178 82.3307 11.9278 82.3307 11.3395C82.3307 10.9555 82.165 10.708 81.9896 10.5812C81.8193 10.46 81.6001 10.4161 81.2937 10.4161H80.3154ZM78.5199 10.8292C78.7534 10.8292 78.914 10.8292 79.0358 10.9993C79.1378 11.1455 79.148 11.3008 79.148 11.3981C79.148 11.967 78.7682 11.967 78.5199 11.967H78.2522V10.8292H78.5199ZM77.7169 10.4161V13.6589H78.2522V12.3948H78.5296C78.7391 12.3948 79.0991 12.3948 79.3427 12.2247C79.644 12.0205 79.7124 11.6365 79.7124 11.4078C79.7124 11.1745 79.6491 10.8924 79.4498 10.6835C79.2158 10.4355 78.8752 10.4161 78.5199 10.4161H77.7169ZM75.9066 10.8292C76.0187 10.8292 76.4368 10.8292 76.4368 11.3349C76.4368 11.6558 76.2864 11.8891 75.902 11.8891H75.488V10.8292H75.9066ZM74.9527 10.4161V13.6589H75.488V12.3021H75.9943L76.5051 13.6589H77.0843L76.4664 12.1906C76.6071 12.1178 76.9675 11.9278 76.9675 11.3395C76.9675 10.9555 76.8018 10.708 76.6269 10.5812C76.4567 10.46 76.2374 10.4161 75.931 10.4161H74.9527ZM72.519 10.416V13.6588H74.3977V13.2213H73.0543V12.2052H74.0913V11.7774H73.0543V10.8438H74.3732V10.416H72.519ZM70.1096 10.416V10.8729H70.8249V13.6588H71.3602V10.8729H72.0856V10.416H70.1096ZM68.5087 12.424L68.8783 10.9363L69.2434 12.424H68.5087ZM68.63 10.4158L67.691 13.6591H68.2069L68.4062 12.8468H69.3504L69.5549 13.6591H70.0998L69.2337 10.4158H68.63ZM64.201 10.4159L64.9015 13.6684H65.3935L65.8993 11.2864L66.4101 13.6684H66.897L67.5786 10.4159H67.1259L66.6635 12.8469L66.1623 10.4159H65.6953L65.1886 12.8469L64.7511 10.4159H64.201Z" fill="#231F20"/>
<path fill-rule="evenodd" clip-rule="evenodd" d="M49.7342 11.0368V9.65806H50.71C51.1857 9.65806 51.6853 9.74108 51.6853 10.3477C51.6853 10.5376 51.6022 10.7398 51.4472 10.8825C51.2688 11.0485 50.9838 11.0368 50.7457 11.0368H49.7342ZM49.7342 14.246V12.772H50.7217C50.9481 12.772 51.2331 12.772 51.4472 12.879C51.6853 12.9976 51.8403 13.2477 51.8403 13.5207C51.8403 13.7468 51.721 13.9607 51.5425 14.0911C51.3402 14.2577 51.0669 14.246 50.8171 14.246H49.7342ZM47.438 16.0642H51.174C51.9117 16.0642 52.7916 16.0525 53.4222 15.6007C54.005 15.1846 54.2553 14.4003 54.2553 13.699C54.2553 12.7246 53.6129 12.0116 52.6728 11.8451V11.8211C53.5053 11.6311 54.0529 10.9059 54.0529 10.0502C54.0529 9.38456 53.7317 8.71889 53.1842 8.32671C52.6728 7.95848 52.0422 7.91111 51.4238 7.91111H47.438V16.0642ZM46.404 14.1151H42.7283V12.7959H45.7025V10.9772H42.7283V9.78895H46.404V7.91111H40.277V16.0642H46.404V14.1151ZM39.0531 7.91107H36.531V16.0642H39.0531V7.91107ZM35.8548 14.0675H32.6547V7.91091H30.1326V16.0645H35.8548V14.0675ZM27.6446 9.87208H29.3219V7.91122H23.5523V9.87208H25.2653V16.0643H27.6446V9.87208ZM18.3173 11.2032V9.64619H19.3288C19.5664 9.64619 19.8284 9.6462 20.0425 9.75315C20.2923 9.88405 20.4351 10.1453 20.4351 10.4188C20.4351 11.1201 19.7805 11.2032 19.2334 11.2032H18.3173ZM23.0759 16.0641L21.601 12.5106C22.5646 12.071 23.0402 11.4288 23.0402 10.3592C23.0402 9.56317 22.7191 8.83791 22.041 8.41009C21.4343 8.0062 20.6492 7.91096 19.9355 7.91096H15.783V16.0641H18.3173V12.9501H19.1024L20.2923 16.0641H23.0759ZM11.0479 9.63443C12.1542 9.63443 12.273 11.2271 12.273 12.0231C12.273 12.808 12.1899 14.3171 11.0479 14.3171C9.90591 14.3171 9.8223 12.808 9.8223 12.0231C9.8223 11.2271 9.94159 9.63443 11.0479 9.63443ZM11.0479 7.79224C8.56152 7.79224 7.14575 9.57484 7.14575 12.0114C7.14575 14.3293 8.57324 16.1832 11.0479 16.1832C13.5226 16.1832 14.95 14.3293 14.95 12.0114C14.95 9.57484 13.5343 7.79224 11.0479 7.79224Z" fill="white"/>
</g>
<defs>
<clipPath id="clip0_38_1794">
<rect width="100" height="21.8182" fill="white" transform="translate(0 0.982422)"/>
</clipPath>
</defs>
</svg>
