<svg width="100" height="47" viewBox="0 0 100 47" fill="none" xmlns="http://www.w3.org/2000/svg">
<g clip-path="url(#clip0_38_1792)">
<path fill-rule="evenodd" clip-rule="evenodd" d="M97.7909 26.2814C96.5654 26.2814 95.5773 27.2856 95.5773 28.5077C95.5773 29.7315 96.5654 30.7188 97.7909 30.7188C99.0031 30.7188 100 29.7315 100 28.5077C100 27.2856 99.0031 26.2814 97.7909 26.2814ZM97.7909 30.1977C96.8568 30.1977 96.1057 29.4402 96.1057 28.5077C96.1057 27.5769 96.8568 26.8178 97.7909 26.8178C98.715 26.8178 99.4703 27.5769 99.4703 28.5077C99.4703 29.4402 98.715 30.1977 97.7909 30.1977Z" fill="#232A2A"/>
<path fill-rule="evenodd" clip-rule="evenodd" d="M98.6182 28.1548V27.9714C98.6182 27.6516 98.4323 27.3314 97.8728 27.3314H97.2538C97.1074 27.3314 96.9902 27.4509 96.9902 27.5941V29.4221C96.9902 29.5695 97.1074 29.6883 97.2538 29.6883C97.3985 29.6883 97.5245 29.5695 97.5245 29.4221V28.7935H97.7443L98.0794 29.5107C98.1306 29.6341 98.2112 29.6883 98.3271 29.6883C98.4702 29.6883 98.5877 29.5695 98.5877 29.4221C98.5877 29.3756 98.5832 29.3399 98.5599 29.3039L98.2656 28.7117C98.5013 28.61 98.6182 28.4159 98.6182 28.1548ZM98.0911 28.1259C98.0911 28.236 98.0221 28.3353 97.8171 28.3353H97.5245V27.8077H97.8541C98.0283 27.8077 98.0911 27.9068 98.0911 28.0162V28.1259Z" fill="#232A2A"/>
<path d="M92.2216 27.1746C91.6243 26.5463 90.8673 26.7297 90.0974 27.2677C89.5615 27.6408 88.6669 27.6769 89.1633 25.5706C89.6347 23.5709 91.3549 20.3068 91.599 19.7224C91.9419 18.9074 91.4996 17.9019 90.0371 17.7801C89.4048 17.733 88.7854 17.8749 88.169 18.3827C87.4939 17.6142 86.4546 16.9035 84.7885 16.9035C82.0833 16.9035 78.3573 18.975 76.1715 22.3121C74.9694 24.1164 73.3181 26.08 71.4645 27.3038C70.895 27.6869 70.2332 27.8889 69.8249 27.7428C68.9818 27.433 69.2205 26.1911 71.0359 24.1167C73.9463 20.7883 74.7748 18.2853 73.0837 16.8031C71.933 15.7966 70.0403 15.683 68.1177 16.5911C66.0782 17.5499 64.922 18.6009 63.8607 19.6883C66.5296 14.1469 69.8615 7.67005 72.0797 4.03033C73.1015 2.3319 73.1015 0.877629 71.6549 0.622102C70.3828 0.399692 69.0884 1.01432 68.0536 3.19004C65.6729 8.19215 63.717 12.628 61.3877 17.6145V17.6058C59.8799 20.6442 57.1042 24.8959 53.466 27.3044C52.8961 27.6876 52.236 27.8895 51.8264 27.7434C50.9742 27.4337 51.2248 26.1917 53.0328 24.1173C55.939 20.789 56.7749 18.286 55.0839 16.8038C53.929 15.7973 52.0329 15.6836 50.1107 16.5918C47.5853 17.7811 46.4171 19.1039 45.098 20.4662C46.2079 18.772 46.082 17.2126 45.019 16.8713C43.6281 16.4229 42.9035 16.972 41.5757 20.7377C40.9007 22.5825 39.0678 26.081 36.4663 27.2687C35.8647 27.5428 34.7635 27.6778 35.2628 25.5716C35.7371 23.5719 37.4499 20.3078 37.6943 19.7234C38.0385 18.9084 37.5991 17.9028 36.1425 17.7811C35.4985 17.734 34.8849 17.8759 34.2759 18.3837C33.5979 17.6152 32.5499 16.9044 30.8838 16.9044C27.3569 16.9044 22.0791 20.4325 20.772 25.6956C20.1542 26.5918 18.977 27.5424 17.4734 27.5889C14.7796 27.6593 13.3038 25.2693 12.6699 22.4907C18.7309 21.2942 24.4348 17.9071 25.5399 12.5718C26.5883 7.51972 23.1316 3.14199 16.9226 3.27608C8.38312 3.45239 2.61898 9.6331 1.24003 12.2533C0.273894 14.0849 1.16233 15.558 2.38328 15.4963C3.26167 15.4602 4.90288 14.8842 5.42416 13.0848C6.24719 10.2302 9.48978 6.94081 14.9871 6.4804C19.1463 6.12877 21.5095 8.77593 21.1243 12.201C20.6499 16.3859 16.5626 18.7827 12.3432 19.8604L12.3328 19.5964C12.3241 18.308 12.2156 17.4317 11.3476 17.1476C11.355 16.6918 11.1601 16.3372 10.7078 16.1265C9.99778 15.808 9.02711 15.844 8.22188 17.072C5.28202 21.6137 3.85321 23.7248 0.998499 27.4768C-0.307603 29.2107 -0.347103 31.013 0.966122 31.3857C2.31302 31.7705 3.57509 31.2133 4.66264 29.4691C6.10181 27.1567 7.30658 24.8959 8.3637 22.9653C8.65056 22.9608 8.94616 22.9433 9.23335 22.9264C9.4192 26.7194 11.3314 31.9426 16.5257 31.0945C18.4334 30.7831 19.7524 29.7717 20.7713 28.8107C21.518 30.938 24.0301 31.44 26.5394 30.251C29.0664 29.059 30.2288 27.7434 31.5478 26.3736C30.0235 30.2737 32.9459 33.1387 37.5269 29.4318C37.7215 29.2681 37.9074 29.1116 38.089 28.9672C35.7964 33.7702 33.0265 39.1194 31.3063 42.7815C30.1349 45.2729 30.6782 46.405 32.1393 46.5239C33.5973 46.6333 34.454 45.8758 35.3337 43.7666C36.5168 40.9279 38.8227 34.7553 42.4518 27.6713C45.9143 20.9033 50.3678 19.2399 51.2407 19.8162C52.1748 20.4218 50.8674 21.9254 48.8891 24.4469C46.7253 27.1944 46.8234 29.4694 47.8689 30.4091C49.185 31.6055 51.5508 31.815 54.4878 29.4321C55.385 28.7009 56.0409 28.0808 56.5697 27.5243C55.6485 29.3691 55.284 30.7373 56.5315 31.2393C57.3629 31.5695 58.4715 31.3302 59.0323 30.0795C59.8505 28.2457 61.7173 25.0511 63.7668 22.8215C66.37 19.9886 68.7138 19.4675 69.2525 19.8162C70.1792 20.4218 68.8718 21.9254 66.888 24.4469C64.7284 27.1944 64.8298 29.4694 65.8691 30.4091C67.1898 31.6055 69.5514 31.815 72.4909 29.4321C73.3269 28.7568 73.9508 28.1629 74.4601 27.6418C74.6077 30.7373 77.5181 31.6315 80.4408 30.2513C82.963 29.0594 84.1344 27.7437 85.4577 26.3739C84.1033 30.4724 87.8675 32.9124 91.5731 29.5341C92.5143 28.6736 92.6507 27.6152 92.2216 27.1746ZM27.3847 26.7116C25.8811 27.6512 23.9106 27.2856 24.8111 24.5469C25.6603 21.9835 27.8898 20.4984 29.2587 20.4984C30.7066 20.4984 31.4079 21.3984 31.8195 22.1553C30.8776 23.6598 29.5236 25.369 27.3847 26.7116ZM81.2842 26.7116C79.7819 27.6512 77.8144 27.2856 78.7119 24.5469C79.5657 21.9835 81.6841 20.4984 83.0556 20.4984C84.5077 20.4984 85.2942 21.4049 85.719 22.1611C84.7804 23.6598 83.4228 25.369 81.2842 26.7116Z" fill="#232A2A"/>
</g>
<defs>
<clipPath id="clip0_38_1792">
<rect width="100" height="45.9547" fill="white" transform="translate(0 0.578979)"/>
</clipPath>
</defs>
</svg>
