<svg width="100" height="24" viewBox="0 0 100 24" fill="none" xmlns="http://www.w3.org/2000/svg">
<g clip-path="url(#clip0_38_1791)">
<path d="M6.52256 18.0323C7.02351 17.8053 7.36925 17.2944 7.94645 15.9281C8.92893 13.6025 8.93895 13.3231 8.07008 12.4791C7.76481 12.1826 7.2448 11.7104 6.9145 11.4298C6.19595 10.8194 6.0298 10.5848 6.02923 10.1796C6.0287 9.80502 6.53003 8.52209 6.85006 8.07905C7.28215 7.48085 7.25423 7.48704 9.47068 7.49875L11.4519 7.50922L11.6326 7.13637C11.7319 6.93131 11.8132 6.74613 11.8132 6.72486C11.8132 6.70359 10.3925 6.687 8.65621 6.68799C5.76761 6.68963 5.47154 6.70254 5.17336 6.83986C4.99413 6.9224 4.7844 7.06116 4.70731 7.14822C4.4841 7.40029 3.40229 10.0311 3.35732 10.4313L3.3165 10.7944L4.03772 11.457C5.92653 13.1921 6.0488 13.3282 6.04381 13.6907C6.03544 14.2992 4.88552 16.7899 4.49406 17.0475C4.31518 17.1652 3.99384 17.1888 2.27731 17.2106L0.269762 17.2361L0.13488 17.5198C0.0606961 17.6758 0 17.8968 0 18.0109V18.2184L3.11624 18.1911C5.76489 18.1678 6.276 18.144 6.52256 18.0323ZM9.58171 18.1258L10.6498 18.1247L11.4954 16.194C12.092 14.8321 12.3893 14.2438 12.5049 14.1971C12.5949 14.1608 13.5132 14.0177 14.5455 13.8792C16.7289 13.5863 16.8925 13.5478 17.3428 13.2206C17.7191 12.9472 18.1395 12.1398 19.1924 9.66838C19.9624 7.86066 20.0006 7.23459 19.3644 6.84554C19.1197 6.69595 18.9335 6.68689 16.1311 6.68819L13.1574 6.68957L10.651 12.3867C9.27247 15.5201 8.14512 18.1157 8.1458 18.1547C8.14647 18.1936 8.22951 18.2033 8.33033 18.1762C8.43115 18.1491 8.99427 18.1264 9.58171 18.1258ZM12.9111 13.0655C12.9337 12.9946 13.4788 11.7048 14.1226 10.1995L15.293 7.46238L15.9655 7.4385C16.7694 7.40996 17.0273 7.52626 17.0273 7.91733C17.0273 8.05314 16.766 8.8152 16.4467 9.6108C15.4236 12.1595 15.1055 12.7119 14.5587 12.888C14.4153 12.9342 13.9768 13.022 13.5841 13.0832C12.939 13.1838 12.8741 13.1821 12.9111 13.0655ZM23.8069 17.7772C23.8837 17.5863 23.9701 17.3659 23.9989 17.2872C24.0477 17.1536 23.9254 17.1443 22.1334 17.1443C20.3324 17.1443 20.2127 17.135 20.1673 16.9916C20.1068 16.8005 20.1236 16.7555 21.0768 14.5502L21.8626 12.7323H23.4615H25.0604L25.2395 12.3624C25.3381 12.159 25.4187 11.9752 25.4187 11.9539C25.4187 11.9326 24.7038 11.9152 23.8301 11.9152C22.9563 11.9152 22.2414 11.8847 22.2414 11.8474C22.2414 11.7294 23.7664 8.18618 23.9154 7.95817C24.2119 7.50432 24.3985 7.46514 26.4037 7.43558L28.244 7.40845L28.419 7.04733L28.5939 6.6862H25.5559H22.5178L22.1034 6.89329C21.8471 7.02138 21.6104 7.21953 21.4829 7.41275C21.2118 7.8236 17.4603 16.6242 17.3545 17.0974C17.2589 17.525 17.3382 17.8026 17.6106 17.9939C17.773 18.108 18.1722 18.1247 20.7319 18.1244L23.6671 18.1241L23.8069 17.7772ZM31.8898 17.6832C31.9602 17.4403 32.0178 17.2204 32.0178 17.1945C32.0178 17.1685 31.1694 17.1374 30.1324 17.1253C28.4964 17.1063 28.2361 17.0859 28.1637 16.9707C28.099 16.8678 28.4954 15.8671 29.9274 12.5178C30.9433 10.1418 31.8476 8.0773 31.9369 7.93014C32.0263 7.78297 32.1934 7.62672 32.3083 7.5829C32.4232 7.53908 33.3594 7.50323 34.3886 7.50323H36.2601L36.4201 7.12879C36.5081 6.92285 36.5801 6.73902 36.5801 6.72027C36.5801 6.64165 30.4939 6.69175 30.203 6.77277C29.5964 6.9417 29.521 7.08485 27.3619 12.1603C25.1199 17.431 25.0833 17.5459 25.5251 17.9273L25.7537 18.1247H28.7578H31.7618L31.8898 17.6832ZM37.8429 13.1223C39.008 10.3716 40.0963 7.79812 40.2615 7.40357L40.5619 6.6862H39.2781H37.9943L35.567 12.3033C34.232 15.3927 33.1217 17.9664 33.0996 18.0226C33.0685 18.1018 33.3588 18.1246 34.3921 18.1242L35.7247 18.1237L37.8429 13.1223ZM40.7131 15.7968L42.2423 13.4689L43.2861 13.4683L44.3298 13.4676L44.2831 13.8148C44.241 14.1277 43.831 18.0042 43.831 18.0894C43.831 18.1088 44.3958 18.1247 45.0861 18.1247H46.3413L46.3908 17.7366C46.418 17.5232 46.6219 15.1241 46.8439 12.4054C47.066 9.68676 47.2684 7.28774 47.2937 7.07429L47.3398 6.6862H46.1109C44.7365 6.6862 44.6088 6.72175 44.1494 7.23241C43.9416 7.4634 37.2037 17.351 36.8001 18.0172C36.7474 18.1042 36.9683 18.1247 37.9595 18.1247H39.1839L40.7131 15.7968ZM43.1312 12.5176C43.1883 12.3683 44.5574 10.018 44.6243 9.95434C44.6677 9.91311 44.6462 10.1729 44.4737 11.7722L44.379 12.6506H43.7296C43.1635 12.6506 43.0868 12.6335 43.1312 12.5176ZM52.9586 17.7503C53.2291 17.1173 53.2814 17.1443 51.781 17.1443C51.0453 17.1443 50.3854 17.1219 50.3146 17.0947C50.2408 17.0663 50.1857 16.9502 50.1857 16.8233C50.1857 16.7013 51.1206 14.3846 52.2632 11.6749C53.4058 8.96527 54.3407 6.73338 54.3407 6.71516C54.3407 6.69695 53.7636 6.69217 53.0583 6.70455L51.7759 6.72705L51.1395 8.19771C47.0313 17.6924 47.1029 17.4953 47.6035 17.9274L47.8321 18.1247H50.3153H52.7985L52.9586 17.7503ZM58.8282 12.528C60.1238 9.47229 61.2051 6.90687 61.2309 6.82707C61.2748 6.69162 61.1929 6.68348 59.9976 6.70452L58.7173 6.72705L56.2535 12.4278L53.7897 18.1286L55.1311 18.1062L56.4724 18.0838L58.8282 12.528ZM65.0377 17.7775C65.1044 17.5865 65.1851 17.3659 65.217 17.2872C65.2715 17.1531 65.136 17.1443 63.0308 17.1443C61.6344 17.1443 60.7676 17.1136 60.7365 17.0632C60.709 17.0186 60.7167 16.9281 60.7536 16.862C60.8313 16.7226 64.0155 13.2278 66.8464 10.1748C67.9218 9.01496 68.9025 7.93393 69.0257 7.77248C69.2903 7.42584 69.3134 7.07683 69.0868 6.8496C68.9294 6.69172 68.8152 6.6862 65.7134 6.6862H62.503L62.3731 7.06842C62.3017 7.27864 62.2433 7.48086 62.2433 7.51779C62.2433 7.55472 63.1393 7.58493 64.2345 7.58493C65.4379 7.58493 66.2451 7.6164 66.2747 7.66447C66.3316 7.75678 66.0543 8.065 61.3486 13.1408C57.7697 17.0011 57.4114 17.4454 57.5971 17.7934C57.6443 17.8819 57.7467 17.9915 57.8245 18.037C57.9139 18.0892 59.2482 18.1206 61.4413 18.1222L64.9165 18.1247L65.0377 17.7775ZM72.9611 17.673C73.0707 17.4246 73.1603 17.204 73.1603 17.1828C73.1603 17.1616 72.3216 17.1443 71.2965 17.1443C69.1524 17.1443 69.151 17.1438 69.3521 16.5539C69.4175 16.3618 69.8116 15.4234 70.2277 14.4685L70.9842 12.7323H72.5856H74.1869L74.3661 12.3624C74.4647 12.159 74.5453 11.9752 74.5453 11.9539C74.5453 11.9326 73.8304 11.9152 72.9566 11.9152C72.034 11.9152 71.368 11.8834 71.368 11.8394C71.368 11.6754 72.9379 8.06919 73.0983 7.86464C73.4121 7.46452 73.6535 7.42153 75.5855 7.42153H77.3643L77.5424 7.05386L77.7205 6.6862L74.6868 6.68799C71.292 6.69 71.2555 6.69545 70.7471 7.27611C70.4536 7.61137 66.5681 16.6497 66.5007 17.1542C66.4781 17.323 66.4837 17.5577 66.5132 17.6755C66.6171 18.0907 66.8265 18.118 69.9263 18.1215L72.7619 18.1247L72.9611 17.673ZM79.1567 18.0432C81.1432 18.043 81.2095 18.0377 81.471 17.8592C81.6191 17.7581 81.8486 17.5403 81.981 17.3753C82.1191 17.2031 83.0385 15.1834 84.1381 12.6365C85.797 8.79434 86.0598 8.12924 86.0937 7.68833C86.1318 7.19306 86.1249 7.171 85.8465 6.89172L85.5601 6.60449H82.27H78.98L76.707 11.9357C75.4568 14.8678 74.3469 17.4657 74.2405 17.7088L74.047 18.1509L75.5793 18.0972C76.4221 18.0676 78.0319 18.0434 79.1567 18.0432ZM77.1054 17.0013C77.1304 16.9226 78.0471 14.7626 79.1423 12.2012L81.1338 7.54408H82.1536C83.2864 7.54408 83.3768 7.57984 83.3602 8.02166C83.3512 8.26328 82.391 10.5703 80.2787 15.4256C79.9664 16.1435 79.6984 16.6331 79.5072 16.835L79.2143 17.1443H78.1371C77.1482 17.1443 77.0636 17.1325 77.1054 17.0013Z" fill="black"/>
<path d="M95.0892 23.4457C95.031 23.3624 94.9833 23.2692 94.9833 23.2386C94.9833 23.1213 94.558 22.6591 94.45 22.6591C94.322 22.6591 93.9037 22.1768 93.7798 21.8864C93.735 21.7813 93.604 21.5757 93.4887 21.4295C93.3735 21.2833 93.2156 21.0385 93.138 20.8855C93.0603 20.7326 92.9189 20.5232 92.8238 20.4202C92.3451 19.9024 92.2721 19.7176 92.238 18.9375C92.2205 18.5362 92.1865 18.103 92.1625 17.9749C92.1278 17.7891 92.1423 17.733 92.2344 17.6976C92.2979 17.6731 92.4062 17.6885 92.4751 17.7316C92.5903 17.8037 92.5941 17.7979 92.5223 17.659C92.4794 17.5759 92.4189 17.4631 92.3878 17.4083C92.2591 17.1806 92.2595 17.1385 92.3922 16.9692C92.4686 16.8718 92.5311 16.7082 92.5311 16.6056C92.5311 16.503 92.5609 16.4006 92.5974 16.378C92.6338 16.3554 92.6635 16.2266 92.6633 16.0916C92.663 15.8614 92.806 15.3252 92.9368 15.0662C92.9688 15.0028 92.995 14.9055 92.995 14.8502C92.995 14.7872 93.057 14.7496 93.1607 14.7496C93.3219 14.7496 93.3264 14.7367 93.3264 14.2781C93.3264 13.8625 93.3421 13.8025 93.459 13.7719C93.5663 13.7437 93.5915 13.6812 93.5915 13.4437C93.5915 13.1116 93.6984 13.0246 93.9598 13.1441C94.1129 13.214 94.1168 13.2104 94.0384 13.071C93.9931 12.9904 93.9139 12.8908 93.8624 12.8496C93.7469 12.7573 93.8136 12.5562 93.9598 12.5562C94.0483 12.5562 94.0593 12.5096 94.0223 12.2904C93.9783 12.0289 93.9809 12.0245 94.1777 12.0245C94.3197 12.0245 94.3901 12.0631 94.42 12.1575C94.4432 12.2306 94.5135 12.3181 94.5763 12.3518C94.6757 12.4051 94.6871 12.384 94.6642 12.1879C94.6498 12.064 94.5964 11.9281 94.5456 11.8858C94.4947 11.8434 94.4531 11.7055 94.4531 11.5793C94.4531 11.3604 94.463 11.3508 94.6685 11.3709C94.8541 11.3891 94.8799 11.3737 94.8548 11.2596C94.8388 11.1868 94.8239 11.0076 94.8217 10.8613C94.818 10.6179 94.8335 10.5936 95.0045 10.574C95.1702 10.5549 95.1895 10.5285 95.1742 10.3414C95.1539 10.0924 95.2379 9.76464 95.3219 9.76464C95.3544 9.76464 95.381 9.72191 95.381 9.66969C95.381 9.61746 95.42 9.53521 95.4676 9.4869C95.5152 9.43859 95.5735 9.34776 95.5972 9.28504C95.6227 9.21728 95.4464 9.31 95.1626 9.51355C94.9 9.70195 94.5956 9.91901 94.4863 9.9959C94.3769 10.0728 94.1644 10.2541 94.0139 10.3988C93.6403 10.7582 93.197 11.094 93.0962 11.094C93.0504 11.094 92.7628 11.3203 92.4572 11.5969C91.5869 12.3847 91.4466 12.4031 90.8166 11.8121C90.5752 11.5856 90.1873 11.1509 89.9546 10.8461C89.6187 10.406 89.5302 10.241 89.5251 10.0449C89.5175 9.75007 89.8879 8.93662 90.0757 8.83583C90.1455 8.79835 90.2121 8.68543 90.2236 8.58488C90.2397 8.44488 90.2844 8.39742 90.4149 8.3822C90.5609 8.36516 90.5813 8.3355 90.5576 8.17382C90.5195 7.91379 90.6387 7.72135 90.9074 7.60875C91.1431 7.50997 91.2266 7.34285 91.1916 7.03973C91.1769 6.912 91.2061 6.86894 91.3184 6.85274C91.3987 6.84117 91.4828 6.77377 91.5052 6.70297C91.5276 6.63218 91.5737 6.57425 91.6077 6.57425C91.6417 6.57425 91.6695 6.50111 91.6695 6.41171C91.6695 6.25612 91.829 6.12085 92.1519 6.0027C92.2321 5.97336 92.2568 5.91867 92.2292 5.83163C92.181 5.67925 92.3605 5.37786 92.4995 5.37786C92.5533 5.37786 92.5974 5.35393 92.5974 5.32468C92.5974 5.29543 92.7465 5.08591 92.9288 4.85908C93.111 4.63225 93.2602 4.39261 93.2602 4.32656C93.2602 4.19354 93.5945 3.9156 93.7545 3.9156C93.819 3.9156 93.8566 3.85494 93.8566 3.75114C93.8566 3.63717 93.9152 3.5563 94.0474 3.48773C94.2607 3.37713 94.3206 3.26525 94.3206 2.97726C94.3206 2.82039 94.4273 2.67409 94.8514 2.24934C95.1433 1.95697 95.4568 1.59912 95.5481 1.45412C95.6394 1.30912 95.7435 1.19048 95.7795 1.19048C95.8155 1.19048 95.8449 1.13135 95.8449 1.05908C95.8449 0.986809 95.9195 0.878685 96.0106 0.818802C96.1018 0.758922 96.1763 0.667563 96.1763 0.615785C96.1763 0.564007 96.2211 0.504426 96.2757 0.483385C96.3304 0.462341 96.3751 0.387568 96.3751 0.317219C96.3751 0.162525 96.5171 0.0982958 96.7368 0.153599C96.9521 0.207786 97.0311 0.505844 96.9885 1.10311C96.9624 1.46907 96.9852 1.65207 97.0961 1.9651C97.3058 2.5575 97.2844 2.76189 96.9716 3.15246C96.6557 3.54694 96.6326 3.57878 96.5192 3.77663C96.3812 4.01746 95.6335 4.91259 95.5704 4.91259C95.5391 4.91259 95.5136 4.96461 95.5136 5.02819C95.5136 5.09177 95.4392 5.21889 95.3484 5.31067C95.135 5.52624 94.7182 6.09315 94.7182 6.16789C94.7182 6.19966 94.6719 6.26423 94.6152 6.3114C94.5585 6.35856 94.4858 6.4465 94.4537 6.50682C94.4042 6.59945 94.4254 6.61203 94.5898 6.58782C94.6979 6.57192 94.7845 6.51816 94.7845 6.46701C94.7845 6.41632 94.8256 6.37485 94.8758 6.37485C94.926 6.37485 95.0054 6.32863 95.0521 6.27213C95.0989 6.21563 95.1763 6.18447 95.2241 6.20289C95.272 6.2213 95.4169 6.13632 95.5462 6.01403C95.6755 5.89174 95.8777 5.75274 95.9954 5.70513C96.1131 5.65754 96.3237 5.52208 96.4634 5.40412C96.7634 5.15074 97.805 4.62139 97.8945 4.67683C97.9286 4.69802 97.9754 4.68496 97.9983 4.64781C98.0212 4.61066 98.1201 4.57931 98.2182 4.57815C98.3163 4.57699 98.4545 4.53212 98.5252 4.47845C98.817 4.25715 98.9239 4.33717 99.4303 5.15564C99.9977 6.07262 100.117 6.485 99.8959 6.76777C99.822 6.8624 99.6357 7.14919 99.4819 7.40508C99.3281 7.66098 99.0181 8.16945 98.793 8.53501C97.6654 10.3663 96.0196 13.6877 95.5348 15.1105C95.3346 15.698 95.1286 16.2449 95.0771 16.3259C95.0255 16.4068 94.9833 16.5471 94.9833 16.6376C94.9833 16.7282 94.9535 16.8207 94.9171 16.8433C94.8806 16.8659 94.8503 17.0845 94.8496 17.3291C94.849 17.5737 94.8027 17.9832 94.7467 18.2391C94.6019 18.9011 94.5494 20.3876 94.6471 21.058C94.7184 21.5469 94.9767 22.3173 95.1271 22.4896C95.1574 22.5243 95.1822 22.5923 95.1822 22.6406C95.1822 22.6889 95.2591 22.845 95.3532 22.9876C95.4487 23.1324 95.5145 23.315 95.5023 23.4015C95.472 23.6162 95.2266 23.6424 95.0892 23.4457Z" fill="url(#paint0_radial_38_1791)"/>
<path d="M83.5875 19.1725C84.0835 19.1725 84.4856 18.7693 84.4856 18.2719C84.4856 17.7745 84.0835 17.3712 83.5875 17.3712C83.0915 17.3712 82.6895 17.7745 82.6895 18.2719C82.6895 18.7693 83.0915 19.1725 83.5875 19.1725Z" stroke="black" stroke-width="1.10474"/>
<path d="M83.2354 18.837V17.7421H83.6668C83.7548 17.7421 83.8165 17.7509 83.8605 17.7774C83.9133 17.795 83.9485 17.8304 83.9749 17.8745C84.0014 17.9275 84.0102 17.9805 84.0102 18.0423C84.0102 18.1218 83.9926 18.1836 83.9485 18.2365C83.9045 18.2895 83.8341 18.3248 83.7372 18.3425C83.7724 18.3602 83.7989 18.3778 83.8165 18.3955C83.8517 18.4308 83.8869 18.4838 83.9221 18.5368L84.0894 18.837H83.9309L83.7989 18.6074C83.7636 18.5456 83.7284 18.4926 83.7108 18.4573C83.6844 18.422 83.658 18.4043 83.6404 18.3866C83.6228 18.369 83.6051 18.3602 83.5787 18.3602C83.5699 18.3513 83.5435 18.3513 83.5083 18.3513H83.3586V18.837H83.2354ZM83.3586 18.2277H83.6404C83.702 18.2277 83.746 18.2189 83.7812 18.2101C83.8077 18.1924 83.8341 18.1747 83.8517 18.1394C83.8693 18.1129 83.8781 18.0776 83.8781 18.0423C83.8781 17.9893 83.8605 17.9452 83.8253 17.9187C83.7989 17.8833 83.746 17.8657 83.6668 17.8657H83.3586V18.2277Z" fill="black" stroke="black" stroke-width="0.0552368"/>
</g>
<defs>
<radialGradient id="paint0_radial_38_1791" cx="0" cy="0" r="1" gradientUnits="userSpaceOnUse" gradientTransform="translate(94.7625 9.29282) rotate(180) scale(8.50413 12.8698)">
<stop stop-color="#B4202D"/>
<stop offset="1" stop-color="#4C1015"/>
</radialGradient>
<clipPath id="clip0_38_1791">
<rect width="100" height="23.445" fill="white" transform="translate(0 0.134033)"/>
</clipPath>
</defs>
</svg>
